<svg width="26" height="25" viewBox="0 0 26 25" fill="none" xmlns="http://www.w3.org/2000/svg">
<path d="M13.0002 0C14.2424 0 15.4557 0 16.698 0C17.2179 0 17.3335 0.115561 17.3335 0.66445C17.3335 2.54223 17.3335 4.39111 17.3335 6.26889C17.3335 6.44222 17.3913 6.58667 17.5068 6.70222C19.5002 8.60889 20.2224 10.92 19.4713 13.5489C18.7202 16.1778 16.9002 17.7956 14.1846 18.3444C10.4579 19.0667 6.84683 16.4667 6.32683 12.6822C6.00906 10.3422 6.73128 8.34889 8.46462 6.73111C8.60906 6.61556 8.66683 6.47111 8.66683 6.29778C8.66683 4.42 8.66683 2.54223 8.66683 0.66445C8.66683 0.14445 8.78239 0.0288906 9.30239 0.0288906C10.5157 1.76281e-06 11.7579 0 13.0002 0ZM7.10684 11.7C7.04906 14.8778 9.64906 17.5356 12.8846 17.5933C16.1202 17.68 18.778 15.0511 18.8646 11.7578C18.9224 8.58 16.2935 5.89334 13.0579 5.83556C9.82239 5.77778 7.16461 8.37778 7.10684 11.7ZM9.5335 0.895557C9.5335 2.57111 9.5335 4.24667 9.5335 5.89334C11.8446 4.65112 14.1268 4.65112 16.4379 5.89334C16.4379 4.21778 16.4379 2.54222 16.4379 0.866666C14.1268 0.895555 11.8446 0.895557 9.5335 0.895557Z" fill="black"/>
<path d="M19.5291 5.66145C19.1246 5.66145 18.9513 5.31479 19.0957 5.0259C19.1535 4.93924 19.2113 4.88146 19.2691 4.82368C19.9913 4.10146 20.7135 3.37923 21.4357 2.62812C21.4646 2.59923 21.5224 2.54146 21.5513 2.51257C21.7535 2.33924 21.9846 2.33924 22.1579 2.51257C22.3313 2.6859 22.3313 2.9459 22.1579 3.11924C21.3491 3.92813 20.569 4.73701 19.7602 5.51701C19.7024 5.60368 19.5579 5.63257 19.5291 5.66145Z" fill="black"/>
<path d="M4.07322 2.33923C4.24655 2.4259 4.3621 2.48368 4.44877 2.57035C5.22877 3.32146 5.97989 4.10146 6.731 4.85257C6.96211 5.08368 6.9621 5.34368 6.75988 5.51701C6.58655 5.69034 6.32655 5.69035 6.12433 5.45924C5.34433 4.70813 4.59322 3.92812 3.84211 3.17701C3.69766 3.03256 3.611 2.85924 3.69766 2.65701C3.78433 2.54146 3.92877 2.45479 4.07322 2.33923Z" fill="black"/>
<path d="M4.15999 21.0307C3.78443 21.0307 3.55333 20.684 3.69777 20.3951C3.75555 20.3084 3.81332 20.2507 3.8711 20.164C4.59332 19.4418 5.31554 18.7195 6.03777 17.9973C6.06666 17.9684 6.12444 17.9107 6.15333 17.8818C6.35555 17.7084 6.58666 17.7084 6.75999 17.8818C6.93332 18.0551 6.93332 18.3151 6.75999 18.4884C5.97999 19.2973 5.1711 20.0773 4.36221 20.8862C4.33333 20.9729 4.21777 21.0018 4.15999 21.0307Z" fill="black"/>
<path d="M19.471 17.7375C19.6443 17.8242 19.7599 17.882 19.8466 17.9687C20.6266 18.7198 21.3777 19.4998 22.1288 20.2509C22.331 20.4531 22.3599 20.7131 22.1866 20.8864C22.0132 21.0887 21.7532 21.0598 21.5221 20.8575C20.7421 20.1064 19.991 19.3264 19.2399 18.5753C19.0955 18.4309 19.0088 18.2575 19.1243 18.0553C19.1821 17.9398 19.3266 17.8531 19.471 17.7375Z" fill="black"/>
<path d="M23.8624 11.2958C24.4113 11.2958 24.9313 11.2958 25.4802 11.2958C25.7979 11.2958 26.0002 11.4691 26.0002 11.7291C26.0002 11.9891 25.7979 12.1624 25.4802 12.1624C24.4113 12.1624 23.3135 12.1624 22.2446 12.1624C21.9268 12.1624 21.7246 11.9891 21.7246 11.7291C21.7246 11.4691 21.9268 11.2958 22.2446 11.2958C22.7646 11.2958 23.3135 11.2958 23.8624 11.2958Z" fill="black"/>
<path d="M13.4336 22.5916C13.4336 23.1116 13.4336 23.6604 13.4336 24.1804C13.4336 24.5271 13.2602 24.7293 13.0002 24.7004C12.7402 24.7004 12.5669 24.4982 12.5669 24.1804C12.5669 23.1116 12.5669 22.0427 12.5669 20.9738C12.5669 20.6271 12.7402 20.4249 13.0002 20.4538C13.2602 20.4538 13.4336 20.656 13.4336 20.9738C13.4336 21.5227 13.4336 22.0427 13.4336 22.5916Z" fill="black"/>
<path d="M2.10889 12.1624C1.58889 12.1624 1.04001 12.1624 0.520005 12.1624C0.173339 12.1624 0 11.9891 0 11.7291C0 11.4691 0.202227 11.3247 0.520005 11.2958C1.58889 11.2958 2.65778 11.2958 3.72666 11.2958C4.04444 11.2958 4.27556 11.4691 4.24667 11.7291C4.24667 11.9891 4.04444 12.1336 3.72666 12.1624C3.17778 12.1624 2.65778 12.1624 2.10889 12.1624Z" fill="black"/>
</svg>
