<svg width="24" height="24" viewBox="0 0 24 24" fill="none" xmlns="http://www.w3.org/2000/svg">
<path d="M7.96289 3.5H16.9629V2.5H7.96289V3.5ZM3.96289 7.5C3.96289 5.30053 5.76419 3.5 7.96289 3.5V2.5C5.21204 2.5 2.96289 4.74812 2.96289 7.5H3.96289ZM3.96289 16.5V7.5H2.96289V16.5H3.96289ZM7.96289 20.5C5.76426 20.5 3.96289 18.6986 3.96289 16.5H2.96289C2.96289 19.2509 5.21197 21.5 7.96289 21.5V20.5ZM16.9629 20.5H7.96289V21.5H16.9629V20.5ZM20.9629 16.5C20.9629 18.6986 19.1615 20.5 16.9629 20.5V21.5C19.7138 21.5 21.9629 19.2509 21.9629 16.5H20.9629ZM20.9629 7.5V16.5H21.9629V7.5H20.9629ZM16.9629 3.5C19.1616 3.5 20.9629 5.30053 20.9629 7.5H21.9629C21.9629 4.74812 19.7137 2.5 16.9629 2.5V3.5ZM8.21282 12C8.21282 14.3466 10.1154 16.2499 12.4629 16.2499V15.2499C10.6677 15.2499 9.21282 13.7943 9.21282 12H8.21282ZM12.4629 7.74993C10.1154 7.74993 8.21282 9.65251 8.21282 12H9.21282C9.21282 10.2048 10.6677 8.74993 12.4629 8.74993V7.74993ZM16.713 12C16.713 9.65243 14.8094 7.74993 12.4629 7.74993V8.74993C14.2573 8.74993 15.713 10.2049 15.713 12H16.713ZM12.4629 16.2499C14.8094 16.2499 16.713 14.3466 16.713 12H15.713C15.713 13.7943 14.2572 15.2499 12.4629 15.2499V16.2499ZM17.338 7.74992C16.9924 7.74992 16.713 7.4702 16.713 7.12492H15.713C15.713 8.0221 16.4397 8.74992 17.338 8.74992V7.74992ZM17.963 7.12492C17.963 7.4702 17.6835 7.74992 17.338 7.74992V8.74992C18.2362 8.74992 18.963 8.0221 18.963 7.12492H17.963ZM17.338 6.49992C17.6835 6.49992 17.963 6.77965 17.963 7.12492H18.963C18.963 6.22775 18.2362 5.49992 17.338 5.49992V6.49992ZM16.713 7.12492C16.713 6.77965 16.9924 6.49992 17.338 6.49992V5.49992C16.4397 5.49992 15.713 6.22775 15.713 7.12492H16.713Z" fill="black"/>
</svg>
