<svg width="12" height="14" viewBox="0 0 12 14" fill="none" xmlns="http://www.w3.org/2000/svg">
<path d="M2.36364 8.375C3.11675 8.375 3.72727 7.75939 3.72727 7C3.72727 6.24061 3.11675 5.625 2.36364 5.625C1.61052 5.625 1 6.24061 1 7C1 7.75939 1.61052 8.375 2.36364 8.375Z" stroke="#6C757D" stroke-width="1.1" stroke-linecap="round" stroke-linejoin="round"/>
<path d="M9.63707 4.25C10.3902 4.25 11.0007 3.63439 11.0007 2.875C11.0007 2.11561 10.3902 1.5 9.63707 1.5C8.88396 1.5 8.27344 2.11561 8.27344 2.875C8.27344 3.63439 8.88396 4.25 9.63707 4.25Z" stroke="#6C757D" stroke-width="1.1" stroke-linecap="round" stroke-linejoin="round"/>
<path d="M9.63707 12.5C10.3902 12.5 11.0007 11.8844 11.0007 11.125C11.0007 10.3656 10.3902 9.75 9.63707 9.75C8.88396 9.75 8.27344 10.3656 8.27344 11.125C8.27344 11.8844 8.88396 12.5 9.63707 12.5Z" stroke="#6C757D" stroke-width="1.1" stroke-linecap="round" stroke-linejoin="round"/>
<path d="M3.55078 7.67407L8.4468 10.451M8.4468 3.54907L3.55078 6.326" stroke="#6C757D" stroke-width="1.1" stroke-linecap="round" stroke-linejoin="round"/>
</svg>
