<svg width="24" height="24" viewBox="0 0 24 24" fill="none" xmlns="http://www.w3.org/2000/svg">
<path d="M20.2697 7.978C20.2827 8.153 20.2827 8.327 20.2827 8.501C20.2827 13.826 16.2297 19.962 8.82272 19.962C6.54072 19.962 4.42072 19.301 2.63672 18.153C2.96072 18.19 3.27272 18.203 3.60972 18.203C5.49272 18.203 7.22572 17.567 8.61072 16.482C6.83972 16.445 5.35572 15.285 4.84372 13.689C5.09272 13.726 5.34272 13.751 5.60472 13.751C5.96572 13.751 6.32872 13.701 6.66572 13.614C4.81872 13.24 3.43572 11.619 3.43572 9.661V9.611C3.97272 9.91 4.59572 10.097 5.25572 10.122C4.17072 9.4 3.45972 8.165 3.45972 6.768C3.45972 6.02 3.65872 5.334 4.00772 4.736C5.99072 7.179 8.97172 8.776 12.3137 8.951C12.2517 8.651 12.2137 8.34 12.2137 8.028C12.2137 5.808 14.0097 4 16.2417 4C17.4017 4 18.4487 4.486 19.1847 5.272C20.0947 5.097 20.9667 4.76 21.7407 4.299C21.4417 5.234 20.8047 6.02 19.9697 6.519C20.7807 6.431 21.5667 6.207 22.2887 5.895C21.7407 6.693 21.0557 7.404 20.2697 7.978Z" stroke="black"/>
</svg>
