<svg width="24" height="24" viewBox="0 0 24 24" fill="none" xmlns="http://www.w3.org/2000/svg">
<path d="M22.4649 6.58254L22.9616 6.52501L22.9613 6.52302L22.4649 6.58254ZM20.467 4.54652L20.5316 4.05071L20.5287 4.05034L20.467 4.54652ZM22.4649 17.1973L22.9614 17.2568L22.9616 17.2548L22.4649 17.1973ZM20.467 19.2333L20.5287 19.7295L20.5311 19.7292L20.467 19.2333ZM2.80924 19.2333L2.74512 19.7292L2.74757 19.7295L2.80924 19.2333ZM0.810539 17.1973L0.313858 17.2548L0.314095 17.2568L0.810539 17.1973ZM0.810539 6.58254L0.314091 6.52302L0.31386 6.52501L0.810539 6.58254ZM2.80924 4.54652L2.74757 4.05033L2.74484 4.05069L2.80924 4.54652ZM9.78131 15.6031H9.28131V16.5374L10.0587 16.0192L9.78131 15.6031ZM9.78131 8.17777L10.0587 7.76175L9.28131 7.24348V8.17777H9.78131ZM15.3503 11.8906L15.6276 12.3066L16.2517 11.8906L15.6276 11.4746L15.3503 11.8906ZM22.9613 6.52302C22.8873 5.90511 22.5657 5.32957 22.1396 4.89546C21.7137 4.46163 21.1454 4.13068 20.5316 4.05071L20.4024 5.04233C20.7504 5.08767 21.1226 5.28703 21.426 5.59602C21.7291 5.90475 21.9256 6.28456 21.9685 6.64206L22.9613 6.52302ZM22.9616 17.2548C23.3801 13.643 23.3801 10.1379 22.9616 6.52501L21.9682 6.64007C22.3779 10.1766 22.3778 13.6044 21.9682 17.1397L22.9616 17.2548ZM20.5311 19.7292C21.1453 19.6498 21.7137 19.3187 22.1396 18.8847C22.5658 18.4504 22.8873 17.8746 22.9613 17.2568L21.9685 17.1377C21.9256 17.4953 21.729 17.8754 21.4259 18.1843C21.1226 18.4934 20.7505 18.6925 20.403 18.7374L20.5311 19.7292ZM2.74757 19.7295C8.65126 20.4633 14.6234 20.4632 20.5287 19.7295L20.4054 18.7371C14.5819 19.4607 8.69268 19.4607 2.87091 18.7371L2.74757 19.7295ZM0.314095 17.2568C0.388175 17.8746 0.70966 18.4504 1.13598 18.8847C1.56203 19.3186 2.13063 19.6497 2.74512 19.7291L2.87336 18.7374C2.52526 18.6924 2.15298 18.4931 1.84957 18.1841C1.54642 17.8753 1.34985 17.4953 1.30698 17.1377L0.314095 17.2568ZM0.31386 6.52501C-0.10462 10.1379 -0.104621 13.6427 0.313862 17.2548L1.30722 17.1397C0.897595 13.6041 0.897593 10.1766 1.30722 6.64007L0.31386 6.52501ZM2.74484 4.05069C2.13057 4.13047 1.56207 4.46141 1.13601 4.89533C0.709693 5.32949 0.388179 5.90512 0.314095 6.52302L1.30698 6.64206C1.34985 6.28455 1.54639 5.90468 1.84954 5.59595C2.15294 5.28696 2.52532 5.0876 2.87364 5.04236L2.74484 4.05069ZM20.5287 4.05034C14.6231 3.31655 8.65126 3.31655 2.74757 4.05034L2.87091 5.04271C8.69268 4.3191 14.5816 4.3191 20.4054 5.04271L20.5287 4.05034ZM10.2813 15.6031V8.17777H9.28131V15.6031H10.2813ZM15.0729 11.4746L9.50396 15.1871L10.0587 16.0192L15.6276 12.3066L15.0729 11.4746ZM9.50395 8.59379L15.0729 12.3066L15.6276 11.4746L10.0587 7.76175L9.50395 8.59379Z" fill="black"/>
</svg>
