<svg width="125" height="46" viewBox="0 0 125 46" fill="none" xmlns="http://www.w3.org/2000/svg">
<rect width="125" height="46" rx="5" fill="black"/>
<g clip-path="url(#clip0_286_395)">
<path d="M60.8227 23.4939V30.5602H58.5352V13.0844H64.4827C65.9314 13.0844 67.3039 13.6162 68.3714 14.604C69.4389 15.5158 69.9727 16.8835 69.9727 18.3271C69.9727 19.7708 69.4389 21.0625 68.3714 22.0502C67.3039 23.038 66.0077 23.5699 64.4827 23.5699L60.8227 23.4939ZM60.8227 15.2118V21.2904H64.6352C65.4739 21.2904 66.3127 20.9865 66.8464 20.3786C68.0664 19.2389 68.0664 17.3393 66.9227 16.1996L66.8464 16.1236C66.2364 15.5158 65.4739 15.1359 64.6352 15.2118H60.8227Z" fill="white"/>
<path d="M75.2339 18.2511C76.9114 18.2511 78.2077 18.707 79.1989 19.6188C80.1902 20.5306 80.6477 21.7463 80.6477 23.2659V30.5602H78.5127V28.8886H78.4364C77.5214 30.2563 76.2252 30.9401 74.7002 30.9401C73.4039 30.9401 72.2602 30.5602 71.3452 29.8004C70.5064 29.0406 69.9727 27.9768 69.9727 26.8371C69.9727 25.6214 70.4302 24.6336 71.3452 23.8738C72.2602 23.114 73.5564 22.8101 75.0814 22.8101C76.4539 22.8101 77.5214 23.038 78.3602 23.5699V23.038C78.3602 22.2782 78.0552 21.5184 77.4452 21.0625C76.8352 20.5306 76.0727 20.2267 75.2339 20.2267C73.9377 20.2267 72.9464 20.7585 72.2602 21.8223L70.2777 20.6066C71.4977 19.0109 73.0989 18.2511 75.2339 18.2511ZM72.3364 26.9131C72.3364 27.5209 72.6414 28.0528 73.0989 28.3567C73.6327 28.7367 74.2427 28.9646 74.8527 28.9646C75.7677 28.9646 76.6827 28.5847 77.3689 27.9008C78.1314 27.217 78.5127 26.3812 78.5127 25.4694C77.8264 24.9375 76.8352 24.6336 75.5389 24.6336C74.6239 24.6336 73.8614 24.8616 73.2514 25.3175C72.6414 25.6974 72.3364 26.2292 72.3364 26.9131Z" fill="white"/>
<path d="M92.9996 18.631L85.4508 35.8789H83.1633L85.9846 29.8764L81.0283 18.707H83.4683L87.0521 27.293H87.1283L90.6358 18.707H92.9996V18.631Z" fill="white"/>
<path d="M51.7492 21.9742C51.7492 21.2904 51.6729 20.6066 51.5967 19.9227H42.0654V23.7978H47.4792C47.2504 25.0135 46.5642 26.1533 45.4967 26.8371V29.3445H48.7754C50.6817 27.5969 51.7492 25.0135 51.7492 21.9742Z" fill="#4285F4"/>
<path d="M42.0649 31.7759C44.8099 31.7759 47.0974 30.8641 48.7749 29.3445L45.4961 26.8371C44.5811 27.4449 43.4374 27.8249 42.0649 27.8249C39.4724 27.8249 37.1849 26.0773 36.4224 23.6458H33.0674V26.2292C34.8211 29.6484 38.2524 31.7759 42.0649 31.7759Z" fill="#34A853"/>
<path d="M36.422 23.6459C35.9645 22.4301 35.9645 21.0625 36.422 19.7708V17.1874H33.067C31.6183 19.9987 31.6183 23.3419 33.067 26.2292L36.422 23.6459Z" fill="#FBBC04"/>
<path d="M42.0648 15.6677C43.5136 15.6677 44.8861 16.1996 45.9536 17.1874L48.8511 14.3001C47.0211 12.6285 44.5811 11.6407 42.1411 11.7167C38.3286 11.7167 34.8211 13.8442 33.1436 17.2634L36.4986 19.8468C37.1848 17.4153 39.4723 15.6677 42.0648 15.6677Z" fill="#EA4335"/>
</g>
<defs>
<clipPath id="clip0_286_395">
<rect width="61" height="28.9492" fill="white" transform="translate(32 8.52542)"/>
</clipPath>
</defs>
</svg>
