<svg width="161" height="50" viewBox="0 0 161 50" fill="none" xmlns="http://www.w3.org/2000/svg">
<g clip-path="url(#clip0_213_4162)">
<path d="M142.925 9.97568C141.899 9.86006 141.139 9.77682 140.361 9.68894C141.522 6.91869 144.874 5.79487 153.34 5.35089C152.93 7.21005 152.44 8.74086 150.478 9.72594C149.144 10.3965 148.217 11.858 146.846 13.2315C155.144 16.5984 160.529 21.7042 161 31C160.529 30.4635 160.184 30.2092 160.026 29.8715C156.384 22.1343 149.722 18.7119 141.722 17.2135C132.468 15.4838 123.144 16.3625 113.838 16.4689C112.062 16.4874 110.291 16.4689 108.458 15.9972C112.137 15.3404 115.815 14.6791 119.493 14.0224C119.554 13.7911 119.615 13.5553 119.68 13.324C118.305 12.4361 117.013 11.3631 115.531 10.7018C113.134 9.62882 110.631 8.79636 108.151 7.91765C106.207 7.22855 104.715 7.86215 103.498 9.50395C102.043 11.4741 100.477 13.361 98.5934 15.0676C99.4839 12.3852 100.374 9.70282 101.335 6.81232C100.612 6.55333 100.001 6.16485 99.372 6.1371C87.7494 5.633 76.1316 4.90691 64.5043 4.79591C57.7304 4.73116 48.2244 9.05072 43.1148 13.6524C49.1148 14.3692 54.7233 15.0722 60.3458 15.7104C65.9449 16.344 71.5534 16.9175 77.1432 17.7407C51.3387 19.105 25.2404 16.6816 0.00457764 24.7427C0.936992 20.1919 4.6107 19.4334 7.87416 18.3558C15.133 15.9555 22.6995 15.2757 30.2661 14.508C32.9375 14.2397 35.6788 13.2732 38.0797 12.0337C43.9912 8.98598 49.6417 5.43876 55.5625 2.41414C57.6837 1.33194 60.2572 0.86946 62.6721 0.652095C66.9193 0.263612 71.2037 0.323734 75.4649 0.115618C89.7308 -0.582726 103.614 1.6048 117.312 5.40176C124.846 7.49217 132.445 9.36058 140.007 11.3677C141.293 11.71 142.263 11.6499 142.934 9.96181L142.925 9.97568Z" fill="#FFE502"/>
</g>
<path d="M11.771 27.998L14.984 37.501L18.214 27.998H20.781L16.531 40H13.454L9.204 27.998H11.771ZM30.9313 34.934C30.9313 35.172 30.903 35.444 30.8463 35.75H23.9443C23.9783 36.5887 24.205 37.2063 24.6243 37.603C25.0437 37.9997 25.565 38.198 26.1883 38.198C26.7437 38.198 27.2027 38.062 27.5653 37.79C27.9393 37.518 28.1773 37.1497 28.2793 36.685H30.8123C30.6877 37.3423 30.4213 37.9317 30.0133 38.453C29.6053 38.9743 29.0783 39.3823 28.4323 39.677C27.7977 39.9717 27.0893 40.119 26.3073 40.119C25.3893 40.119 24.5733 39.9263 23.8593 39.541C23.1453 39.1443 22.59 38.5833 22.1933 37.858C21.7967 37.1327 21.5983 36.277 21.5983 35.291C21.5983 34.305 21.7967 33.4493 22.1933 32.724C22.59 31.9873 23.1453 31.4263 23.8593 31.041C24.5733 30.6557 25.3893 30.463 26.3073 30.463C27.2367 30.463 28.047 30.6557 28.7383 31.041C29.441 31.4263 29.9793 31.959 30.3533 32.639C30.7387 33.3077 30.9313 34.0727 30.9313 34.934ZM28.5173 34.696C28.5513 33.9253 28.3473 33.3417 27.9053 32.945C27.4747 32.5483 26.942 32.35 26.3073 32.35C25.6613 32.35 25.1173 32.5483 24.6753 32.945C24.2333 33.3417 23.9897 33.9253 23.9443 34.696H28.5173ZM38.2429 30.446C39.3309 30.446 40.1979 30.803 40.8439 31.517C41.4899 32.231 41.8129 33.234 41.8129 34.526V40H39.4329V34.798C39.4329 34.05 39.2403 33.472 38.8549 33.064C38.4696 32.6447 37.9426 32.435 37.2739 32.435C36.5939 32.435 36.0499 32.656 35.6419 33.098C35.2339 33.54 35.0299 34.1747 35.0299 35.002V40H32.6329V27.42H35.0299V32.469C35.2793 31.8343 35.6873 31.3413 36.2539 30.99C36.8319 30.6273 37.4949 30.446 38.2429 30.446ZM43.65 27.879C43.65 27.4937 43.786 27.182 44.058 26.944C44.33 26.6947 44.687 26.57 45.129 26.57C45.571 26.57 45.928 26.6947 46.2 26.944C46.472 27.182 46.608 27.4937 46.608 27.879C46.608 28.253 46.472 28.5647 46.2 28.814C45.928 29.052 45.571 29.171 45.129 29.171C44.687 29.171 44.33 29.052 44.058 28.814C43.786 28.5647 43.65 28.253 43.65 27.879ZM46.319 30.582V40H43.922V30.582H46.319ZM52.7204 30.463C53.9331 30.463 54.9417 30.7917 55.7464 31.449C56.5624 32.1063 57.0724 33.0017 57.2764 34.135H54.7434C54.6414 33.6363 54.4091 33.2453 54.0464 32.962C53.6837 32.6673 53.2247 32.52 52.6694 32.52C52.0347 32.52 51.5021 32.758 51.0714 33.234C50.6521 33.6987 50.4424 34.3843 50.4424 35.291C50.4424 36.1977 50.6521 36.889 51.0714 37.365C51.5021 37.8297 52.0347 38.062 52.6694 38.062C53.2247 38.062 53.6837 37.9203 54.0464 37.637C54.4091 37.3423 54.6414 36.9457 54.7434 36.447H57.2764C57.0724 37.5803 56.5624 38.4757 55.7464 39.133C54.9417 39.7903 53.9331 40.119 52.7204 40.119C51.8024 40.119 50.9864 39.9263 50.2724 39.541C49.5584 39.1443 49.0031 38.5833 48.6064 37.858C48.2097 37.1327 48.0114 36.277 48.0114 35.291C48.0114 34.305 48.2097 33.4493 48.6064 32.724C49.0031 31.9873 49.5584 31.4263 50.2724 31.041C50.9864 30.6557 51.8024 30.463 52.7204 30.463ZM61.3766 27.42V40H58.9796V27.42H61.3766ZM72.402 34.934C72.402 35.172 72.3737 35.444 72.317 35.75H65.415C65.449 36.5887 65.6757 37.2063 66.095 37.603C66.5144 37.9997 67.0357 38.198 67.659 38.198C68.2144 38.198 68.6734 38.062 69.036 37.79C69.41 37.518 69.648 37.1497 69.75 36.685H72.283C72.1584 37.3423 71.892 37.9317 71.484 38.453C71.076 38.9743 70.549 39.3823 69.903 39.677C69.2684 39.9717 68.56 40.119 67.778 40.119C66.86 40.119 66.044 39.9263 65.33 39.541C64.616 39.1443 64.0607 38.5833 63.664 37.858C63.2674 37.1327 63.069 36.277 63.069 35.291C63.069 34.305 63.2674 33.4493 63.664 32.724C64.0607 31.9873 64.616 31.4263 65.33 31.041C66.044 30.6557 66.86 30.463 67.778 30.463C68.7074 30.463 69.5177 30.6557 70.209 31.041C70.9117 31.4263 71.45 31.959 71.824 32.639C72.2094 33.3077 72.402 34.0727 72.402 34.934ZM69.988 34.696C70.022 33.9253 69.818 33.3417 69.376 32.945C68.9454 32.5483 68.4127 32.35 67.778 32.35C67.132 32.35 66.588 32.5483 66.146 32.945C65.704 33.3417 65.4604 33.9253 65.415 34.696H69.988ZM77.3506 30.463C78.4953 30.463 79.4133 30.752 80.1046 31.33C80.796 31.908 81.2266 32.6787 81.3966 33.642H79.1526C79.062 33.1887 78.858 32.826 78.5406 32.554C78.2233 32.282 77.8096 32.146 77.2996 32.146C76.8916 32.146 76.5743 32.2423 76.3476 32.435C76.121 32.6277 76.0076 32.8883 76.0076 33.217C76.0076 33.4777 76.0983 33.6873 76.2796 33.846C76.461 34.0047 76.6876 34.1293 76.9596 34.22C77.2316 34.3107 77.6226 34.4183 78.1326 34.543C78.8466 34.7017 79.4246 34.8717 79.8666 35.053C80.32 35.223 80.7053 35.5007 81.0226 35.886C81.3513 36.26 81.5156 36.77 81.5156 37.416C81.5156 38.2207 81.1983 38.8723 80.5636 39.371C79.9403 39.8697 79.096 40.119 78.0306 40.119C76.8066 40.119 75.8263 39.847 75.0896 39.303C74.353 38.7477 73.9053 37.96 73.7466 36.94H76.0416C76.0983 37.4047 76.3023 37.773 76.6536 38.045C77.005 38.3057 77.464 38.436 78.0306 38.436C78.4386 38.436 78.7503 38.3397 78.9656 38.147C79.181 37.943 79.2886 37.6823 79.2886 37.365C79.2886 37.093 79.1923 36.872 78.9996 36.702C78.8183 36.532 78.586 36.4017 78.3026 36.311C78.0306 36.2203 77.6396 36.1127 77.1296 35.988C76.427 35.8293 75.8546 35.6707 75.4126 35.512C74.982 35.342 74.608 35.0757 74.2906 34.713C73.9846 34.3503 73.8316 33.8517 73.8316 33.217C73.8316 32.401 74.1433 31.738 74.7666 31.228C75.39 30.718 76.2513 30.463 77.3506 30.463Z" fill="white"/>
<path d="M108.8 23.248V40H105.44V28.312L101.144 40H98.216L93.92 28.36V40H90.536V23.248H94.64L99.728 35.848L104.72 23.248H108.8ZM124.368 32.848C124.368 33.184 124.328 33.568 124.248 34H114.504C114.552 35.184 114.872 36.056 115.464 36.616C116.056 37.176 116.792 37.456 117.672 37.456C118.456 37.456 119.104 37.264 119.616 36.88C120.144 36.496 120.48 35.976 120.624 35.32H124.2C124.024 36.248 123.648 37.08 123.072 37.816C122.496 38.552 121.752 39.128 120.84 39.544C119.944 39.96 118.944 40.168 117.84 40.168C116.544 40.168 115.392 39.896 114.384 39.352C113.376 38.792 112.592 38 112.032 36.976C111.472 35.952 111.192 34.744 111.192 33.352C111.192 31.96 111.472 30.752 112.032 29.728C112.592 28.688 113.376 27.896 114.384 27.352C115.392 26.808 116.544 26.536 117.84 26.536C119.152 26.536 120.296 26.808 121.272 27.352C122.264 27.896 123.024 28.648 123.552 29.608C124.096 30.552 124.368 31.632 124.368 32.848ZM120.96 32.512C121.008 31.424 120.72 30.6 120.096 30.04C119.488 29.48 118.736 29.2 117.84 29.2C116.928 29.2 116.16 29.48 115.536 30.04C114.912 30.6 114.568 31.424 114.504 32.512H120.96ZM133.874 37.096V40H132.098C130.61 40 129.466 39.64 128.666 38.92C127.882 38.2 127.49 37 127.49 35.32V29.56H125.642V26.704H127.49V23.416H130.874V26.704H133.85V29.56H130.874V35.368C130.874 36.008 131.002 36.456 131.258 36.712C131.514 36.968 131.946 37.096 132.554 37.096H133.874ZM141.517 26.536C142.637 26.536 143.597 26.8 144.397 27.328C145.197 27.856 145.765 28.568 146.101 29.464V26.704H149.461V40H146.101V37.216C145.765 38.112 145.197 38.832 144.397 39.376C143.597 39.904 142.637 40.168 141.517 40.168C140.397 40.168 139.389 39.896 138.493 39.352C137.597 38.808 136.893 38.024 136.381 37C135.885 35.96 135.637 34.744 135.637 33.352C135.637 31.96 135.885 30.752 136.381 29.728C136.893 28.688 137.597 27.896 138.493 27.352C139.389 26.808 140.397 26.536 141.517 26.536ZM142.573 29.488C141.517 29.488 140.669 29.832 140.029 30.52C139.389 31.208 139.069 32.152 139.069 33.352C139.069 34.552 139.389 35.496 140.029 36.184C140.669 36.856 141.517 37.192 142.573 37.192C143.597 37.192 144.437 36.848 145.093 36.16C145.765 35.456 146.101 34.52 146.101 33.352C146.101 32.168 145.765 31.232 145.093 30.544C144.437 29.84 143.597 29.488 142.573 29.488Z" fill="white"/>
<defs>
<clipPath id="clip0_213_4162">
<rect width="161" height="31" fill="white"/>
</clipPath>
</defs>
</svg>
