<svg width="14" height="21" viewBox="0 0 14 21" fill="none" xmlns="http://www.w3.org/2000/svg">
<path d="M6.96184 20.9182C6.7426 20.8305 6.60618 20.6551 6.48438 20.4602C4.70606 17.5906 2.93261 14.7209 1.14454 11.8561C0.267563 10.448 -0.13195 8.93282 0.0385741 7.28118C0.18961 5.81467 0.754774 4.52356 1.7292 3.40785C2.53309 2.48702 3.51239 1.81467 4.66708 1.40541C5.78279 1.01077 6.92774 0.898712 8.09217 1.0936C10.0751 1.42003 11.6488 2.41881 12.7791 4.06558C13.8364 5.60517 14.1969 7.32503 13.8997 9.17156C13.7536 10.0778 13.4223 10.9158 12.9497 11.7002C11.2006 14.6234 9.44662 17.5467 7.7024 20.47C7.58547 20.6649 7.45393 20.8305 7.23955 20.9133C7.14211 20.9182 7.05441 20.9182 6.96184 20.9182ZM7.08852 19.1984C7.11775 19.1643 7.13237 19.1448 7.14698 19.1204C8.76939 16.4115 10.4016 13.7026 12.0142 10.984C12.8912 9.50286 13.0812 7.91455 12.5696 6.26778C11.6927 3.42734 8.84735 1.72697 5.92408 2.2629C3.43931 2.71601 1.49533 4.7964 1.20301 7.32015C1.04223 8.69896 1.34917 9.97058 2.07999 11.1448C3.71214 13.7757 5.3443 16.4066 6.97646 19.0376C7.01056 19.0912 7.04954 19.1399 7.08852 19.1984Z" fill="#616161"/>
<path d="M6.98892 11.0463C5.05469 11.0415 3.49074 9.46778 3.49562 7.53842C3.50049 5.61394 5.08393 4.04024 7.00354 4.04512C8.92802 4.04999 10.5017 5.63342 10.4968 7.55791C10.492 9.48726 8.91828 11.0512 6.98892 11.0463ZM4.66005 7.53842C4.65518 8.82953 5.69294 9.87703 6.98405 9.88191C8.2849 9.89165 9.33241 8.84415 9.33241 7.54329C9.33241 6.25705 8.2849 5.20468 6.99866 5.20468C5.71243 5.20468 4.66492 6.24731 4.66005 7.53842Z" fill="#616161"/>
</svg>
