<svg width="161" height="41" viewBox="0 0 161 41" fill="none" xmlns="http://www.w3.org/2000/svg">
<g clip-path="url(#clip0_286_462)">
<path d="M142.925 9.97568C141.9 9.86006 141.14 9.77682 140.361 9.68894C141.522 6.91869 144.874 5.79487 153.34 5.35089C152.93 7.21005 152.441 8.74086 150.478 9.72594C149.145 10.3965 148.217 11.858 146.846 13.2315C155.145 16.5984 160.529 21.7042 161 31C160.529 30.4635 160.184 30.2092 160.026 29.8715C156.385 22.1343 149.723 18.7119 141.723 17.2135C132.468 15.4838 123.144 16.3625 113.839 16.4689C112.062 16.4874 110.291 16.4689 108.459 15.9972C112.137 15.3404 115.815 14.6791 119.494 14.0224C119.554 13.7911 119.615 13.5553 119.68 13.324C118.305 12.4361 117.014 11.3631 115.531 10.7018C113.135 9.62882 110.631 8.79636 108.151 7.91765C106.207 7.22855 104.715 7.86215 103.498 9.50395C102.044 11.4741 100.477 13.361 98.5937 15.0676C99.4842 12.3852 100.375 9.70282 101.335 6.81232C100.612 6.55333 100.002 6.16485 99.3723 6.1371C87.7497 5.633 76.1319 4.90691 64.5047 4.79591C57.7307 4.73116 48.2247 9.05072 43.1151 13.6524C49.1152 14.3692 54.7236 15.0722 60.3461 15.7104C65.9452 16.344 71.5537 16.9175 77.1435 17.7407C51.339 19.105 25.2407 16.6816 0.00488281 24.7427C0.937297 20.1919 4.61101 19.4334 7.87446 18.3558C15.1333 15.9555 22.6998 15.2757 30.2664 14.508C32.9378 14.2397 35.6791 13.2732 38.08 12.0337C43.9915 8.98598 49.642 5.43876 55.5628 2.41414C57.684 1.33194 60.2575 0.86946 62.6725 0.652095C66.9196 0.263612 71.204 0.323734 75.4652 0.115618C89.7311 -0.582726 103.615 1.6048 117.312 5.40176C124.846 7.49217 132.445 9.36058 140.007 11.3677C141.294 11.71 142.263 11.6499 142.935 9.96181L142.925 9.97568Z" fill="#FFE502"/>
</g>
<path d="M11.7711 27.998L14.9841 37.501L18.2141 27.998H20.7811L16.5311 40H13.4541L9.2041 27.998H11.7711Z" fill="black"/>
<path d="M30.9314 34.934C30.9314 35.172 30.9031 35.444 30.8464 35.75H23.9444C23.9784 36.5887 24.2051 37.2063 24.6244 37.603C25.0438 37.9997 25.5651 38.198 26.1884 38.198C26.7438 38.198 27.2028 38.062 27.5654 37.79C27.9394 37.518 28.1774 37.1497 28.2794 36.685H30.8124C30.6878 37.3423 30.4214 37.9317 30.0134 38.453C29.6054 38.9743 29.0784 39.3823 28.4324 39.677C27.7978 39.9717 27.0894 40.119 26.3074 40.119C25.3894 40.119 24.5734 39.9263 23.8594 39.541C23.1454 39.1443 22.5901 38.5833 22.1934 37.858C21.7968 37.1327 21.5984 36.277 21.5984 35.291C21.5984 34.305 21.7968 33.4493 22.1934 32.724C22.5901 31.9873 23.1454 31.4263 23.8594 31.041C24.5734 30.6557 25.3894 30.463 26.3074 30.463C27.2368 30.463 28.0471 30.6557 28.7384 31.041C29.4411 31.4263 29.9794 31.959 30.3534 32.639C30.7388 33.3077 30.9314 34.0727 30.9314 34.934ZM28.5174 34.696C28.5514 33.9253 28.3474 33.3417 27.9054 32.945C27.4748 32.5483 26.9421 32.35 26.3074 32.35C25.6614 32.35 25.1174 32.5483 24.6754 32.945C24.2334 33.3417 23.9898 33.9253 23.9444 34.696H28.5174Z" fill="black"/>
<path d="M38.243 30.446C39.331 30.446 40.198 30.803 40.844 31.517C41.49 32.231 41.813 33.234 41.813 34.526V40H39.433V34.798C39.433 34.05 39.2404 33.472 38.855 33.064C38.4697 32.6447 37.9427 32.435 37.274 32.435C36.594 32.435 36.05 32.656 35.642 33.098C35.234 33.54 35.03 34.1747 35.03 35.002V40H32.633V27.42H35.03V32.469C35.2794 31.8343 35.6874 31.3413 36.254 30.99C36.832 30.6273 37.495 30.446 38.243 30.446Z" fill="black"/>
<path d="M43.6501 27.879C43.6501 27.4937 43.7861 27.182 44.0581 26.944C44.3301 26.6947 44.6871 26.57 45.1291 26.57C45.5711 26.57 45.9281 26.6947 46.2001 26.944C46.4721 27.182 46.6081 27.4937 46.6081 27.879C46.6081 28.253 46.4721 28.5647 46.2001 28.814C45.9281 29.052 45.5711 29.171 45.1291 29.171C44.6871 29.171 44.3301 29.052 44.0581 28.814C43.7861 28.5647 43.6501 28.253 43.6501 27.879ZM46.3191 30.582V40H43.9221V30.582H46.3191Z" fill="black"/>
<path d="M52.7205 30.463C53.9332 30.463 54.9418 30.7917 55.7465 31.449C56.5625 32.1063 57.0725 33.0017 57.2765 34.135H54.7435C54.6415 33.6363 54.4092 33.2453 54.0465 32.962C53.6838 32.6673 53.2248 32.52 52.6695 32.52C52.0349 32.52 51.5022 32.758 51.0715 33.234C50.6522 33.6987 50.4425 34.3843 50.4425 35.291C50.4425 36.1977 50.6522 36.889 51.0715 37.365C51.5022 37.8297 52.0349 38.062 52.6695 38.062C53.2248 38.062 53.6838 37.9203 54.0465 37.637C54.4092 37.3423 54.6415 36.9457 54.7435 36.447H57.2765C57.0725 37.5803 56.5625 38.4757 55.7465 39.133C54.9418 39.7903 53.9332 40.119 52.7205 40.119C51.8025 40.119 50.9865 39.9263 50.2725 39.541C49.5585 39.1443 49.0032 38.5833 48.6065 37.858C48.2099 37.1327 48.0115 36.277 48.0115 35.291C48.0115 34.305 48.2099 33.4493 48.6065 32.724C49.0032 31.9873 49.5585 31.4263 50.2725 31.041C50.9865 30.6557 51.8025 30.463 52.7205 30.463Z" fill="black"/>
<path d="M61.3767 27.42V40H58.9797V27.42H61.3767Z" fill="black"/>
<path d="M72.4021 34.934C72.4021 35.172 72.3738 35.444 72.3171 35.75H65.4151C65.4491 36.5887 65.6758 37.2063 66.0951 37.603C66.5145 37.9997 67.0358 38.198 67.6591 38.198C68.2145 38.198 68.6735 38.062 69.0361 37.79C69.4101 37.518 69.6481 37.1497 69.7501 36.685H72.2831C72.1585 37.3423 71.8921 37.9317 71.4841 38.453C71.0761 38.9743 70.5491 39.3823 69.9031 39.677C69.2685 39.9717 68.5601 40.119 67.7781 40.119C66.8601 40.119 66.0441 39.9263 65.3301 39.541C64.6161 39.1443 64.0608 38.5833 63.6641 37.858C63.2675 37.1327 63.0691 36.277 63.0691 35.291C63.0691 34.305 63.2675 33.4493 63.6641 32.724C64.0608 31.9873 64.6161 31.4263 65.3301 31.041C66.0441 30.6557 66.8601 30.463 67.7781 30.463C68.7075 30.463 69.5178 30.6557 70.2091 31.041C70.9118 31.4263 71.4501 31.959 71.8241 32.639C72.2095 33.3077 72.4021 34.0727 72.4021 34.934ZM69.9881 34.696C70.0221 33.9253 69.8181 33.3417 69.3761 32.945C68.9455 32.5483 68.4128 32.35 67.7781 32.35C67.1321 32.35 66.5881 32.5483 66.1461 32.945C65.7041 33.3417 65.4605 33.9253 65.4151 34.696H69.9881Z" fill="black"/>
<path d="M77.3507 30.463C78.4954 30.463 79.4134 30.752 80.1047 31.33C80.7961 31.908 81.2267 32.6787 81.3967 33.642H79.1527C79.0621 33.1887 78.8581 32.826 78.5407 32.554C78.2234 32.282 77.8097 32.146 77.2997 32.146C76.8917 32.146 76.5744 32.2423 76.3477 32.435C76.1211 32.6277 76.0077 32.8883 76.0077 33.217C76.0077 33.4777 76.0984 33.6873 76.2797 33.846C76.4611 34.0047 76.6877 34.1293 76.9597 34.22C77.2317 34.3107 77.6227 34.4183 78.1327 34.543C78.8467 34.7017 79.4247 34.8717 79.8667 35.053C80.3201 35.223 80.7054 35.5007 81.0227 35.886C81.3514 36.26 81.5157 36.77 81.5157 37.416C81.5157 38.2207 81.1984 38.8723 80.5637 39.371C79.9404 39.8697 79.0961 40.119 78.0307 40.119C76.8067 40.119 75.8264 39.847 75.0897 39.303C74.3531 38.7477 73.9054 37.96 73.7467 36.94H76.0417C76.0984 37.4047 76.3024 37.773 76.6537 38.045C77.0051 38.3057 77.4641 38.436 78.0307 38.436C78.4387 38.436 78.7504 38.3397 78.9657 38.147C79.1811 37.943 79.2887 37.6823 79.2887 37.365C79.2887 37.093 79.1924 36.872 78.9997 36.702C78.8184 36.532 78.5861 36.4017 78.3027 36.311C78.0307 36.2203 77.6397 36.1127 77.1297 35.988C76.4271 35.8293 75.8547 35.6707 75.4127 35.512C74.9821 35.342 74.6081 35.0757 74.2907 34.713C73.9847 34.3503 73.8317 33.8517 73.8317 33.217C73.8317 32.401 74.1434 31.738 74.7667 31.228C75.3901 30.718 76.2514 30.463 77.3507 30.463Z" fill="black"/>
<path d="M108.8 23.248V40H105.44V28.312L101.144 40H98.2161L93.9201 28.36V40H90.5361V23.248H94.6401L99.7281 35.848L104.72 23.248H108.8Z" fill="black"/>
<path d="M124.368 32.848C124.368 33.184 124.328 33.568 124.248 34H114.504C114.552 35.184 114.872 36.056 115.464 36.616C116.056 37.176 116.792 37.456 117.672 37.456C118.456 37.456 119.104 37.264 119.616 36.88C120.144 36.496 120.48 35.976 120.624 35.32H124.2C124.024 36.248 123.648 37.08 123.072 37.816C122.496 38.552 121.752 39.128 120.84 39.544C119.944 39.96 118.944 40.168 117.84 40.168C116.544 40.168 115.392 39.896 114.384 39.352C113.376 38.792 112.592 38 112.032 36.976C111.472 35.952 111.192 34.744 111.192 33.352C111.192 31.96 111.472 30.752 112.032 29.728C112.592 28.688 113.376 27.896 114.384 27.352C115.392 26.808 116.544 26.536 117.84 26.536C119.152 26.536 120.296 26.808 121.272 27.352C122.264 27.896 123.024 28.648 123.552 29.608C124.096 30.552 124.368 31.632 124.368 32.848ZM120.96 32.512C121.008 31.424 120.72 30.6 120.096 30.04C119.488 29.48 118.736 29.2 117.84 29.2C116.928 29.2 116.16 29.48 115.536 30.04C114.912 30.6 114.568 31.424 114.504 32.512H120.96Z" fill="black"/>
<path d="M133.875 37.096V40H132.099C130.611 40 129.467 39.64 128.667 38.92C127.883 38.2 127.491 37 127.491 35.32V29.56H125.643V26.704H127.491V23.416H130.875V26.704H133.851V29.56H130.875V35.368C130.875 36.008 131.003 36.456 131.259 36.712C131.515 36.968 131.947 37.096 132.555 37.096H133.875Z" fill="black"/>
<path d="M141.518 26.536C142.638 26.536 143.598 26.8 144.398 27.328C145.198 27.856 145.766 28.568 146.102 29.464V26.704H149.462V40H146.102V37.216C145.766 38.112 145.198 38.832 144.398 39.376C143.598 39.904 142.638 40.168 141.518 40.168C140.398 40.168 139.39 39.896 138.494 39.352C137.598 38.808 136.894 38.024 136.382 37C135.886 35.96 135.638 34.744 135.638 33.352C135.638 31.96 135.886 30.752 136.382 29.728C136.894 28.688 137.598 27.896 138.494 27.352C139.39 26.808 140.398 26.536 141.518 26.536ZM142.574 29.488C141.518 29.488 140.67 29.832 140.03 30.52C139.39 31.208 139.07 32.152 139.07 33.352C139.07 34.552 139.39 35.496 140.03 36.184C140.67 36.856 141.518 37.192 142.574 37.192C143.598 37.192 144.438 36.848 145.094 36.16C145.766 35.456 146.102 34.52 146.102 33.352C146.102 32.168 145.766 31.232 145.094 30.544C144.438 29.84 143.598 29.488 142.574 29.488Z" fill="black"/>
<defs>
<clipPath id="clip0_286_462">
<rect width="161" height="31" fill="white"/>
</clipPath>
</defs>
</svg>
