<svg width="26" height="18" viewBox="0 0 26 18" fill="none" xmlns="http://www.w3.org/2000/svg">
<path d="M13.2827 0.386522C16.9142 0.386522 20.5515 0.386522 24.183 0.386522C24.5948 0.386522 24.978 0.443341 25.2811 0.755841C25.567 1.04561 25.6356 1.40925 25.6356 1.80129C25.6356 5.43766 25.6356 9.0797 25.6356 12.7161C25.6356 13.7842 25.6356 14.8524 25.6356 15.9206C25.6356 16.8752 25.161 17.3411 24.1945 17.3411C16.9829 17.3411 9.77697 17.3411 2.56537 17.3411C2.47958 17.3411 2.3938 17.3411 2.30802 17.3411C1.3987 17.3297 0.91831 16.8524 0.91831 15.949C0.91831 11.9888 0.91831 8.02857 0.91831 4.06834C0.91831 3.3297 0.941186 2.59107 0.912591 1.85811C0.872558 0.966068 1.38154 0.363794 2.41668 0.375158C6.03677 0.397885 9.66259 0.386522 13.2827 0.386522ZM24.5662 2.13652C24.4118 2.27857 24.2917 2.38084 24.1773 2.4888C21.0319 5.43198 17.8922 8.36948 14.7467 11.3127C13.7917 12.2047 12.768 12.2047 11.8186 11.3127C8.62174 8.33538 5.43056 5.34675 2.23367 2.36379C2.15932 2.29561 2.08498 2.23311 1.99347 2.15925C1.99347 6.59675 1.99347 11.0002 1.99347 15.449C2.07926 15.3638 2.13073 15.307 2.1822 15.2502C3.47468 13.824 4.76717 12.3979 6.05965 10.9774C6.59723 10.3865 7.12909 9.79561 7.66668 9.21038C7.86684 8.98879 8.13563 8.94334 8.35867 9.0797C8.58743 9.21607 8.65034 9.42629 8.58743 9.66493C8.55311 9.78425 8.46161 9.89788 8.37583 9.99448C6.56292 11.9945 4.74429 13.9945 2.93138 15.9945C2.85703 16.074 2.78841 16.1592 2.6969 16.2672C9.77125 16.2672 16.7941 16.2672 23.8742 16.2672C23.7541 16.1365 23.6683 16.0342 23.5825 15.9433C21.7753 13.949 19.9624 11.9604 18.1552 9.96607C17.8922 9.67629 17.8807 9.35243 18.1209 9.1422C18.3611 8.93198 18.6757 8.97743 18.9445 9.27289C20.3913 10.8638 21.8325 12.4604 23.2794 14.0513C23.6969 14.5115 24.1144 14.9661 24.5719 15.4661C24.5662 10.9945 24.5662 6.59675 24.5662 2.13652ZM2.86275 1.43766C2.8456 1.4547 2.83416 1.47743 2.817 1.49448C2.89135 1.5513 2.9657 1.60243 3.0286 1.65925C5.05311 3.55129 7.0719 5.44334 9.09641 7.3297C10.2802 8.43766 11.4641 9.54561 12.6536 10.6479C13.0425 11.0115 13.5057 11.0002 13.9061 10.6536C13.9918 10.5797 14.0776 10.5002 14.1577 10.4206C17.2745 7.50584 20.3913 4.59107 23.5082 1.67629C23.5825 1.60811 23.674 1.56266 23.7598 1.51152C23.7369 1.48311 23.7198 1.46039 23.6969 1.43198C16.7484 1.43766 9.80556 1.43766 2.86275 1.43766Z" fill="black"/>
</svg>
