<svg width="28" height="28" viewBox="0 0 28 28" fill="none" xmlns="http://www.w3.org/2000/svg">
<path d="M10.5473 25.1302C11.6673 25.4685 12.799 25.6668 14.0007 25.6668C17.0948 25.6668 20.0623 24.4377 22.2502 22.2497C24.4382 20.0618 25.6673 17.0944 25.6673 14.0002C25.6673 12.4681 25.3656 10.951 24.7792 9.53552C24.1929 8.12006 23.3336 6.83393 22.2502 5.75058C21.1669 4.66723 19.8808 3.80787 18.4653 3.22157C17.0498 2.63526 15.5327 2.3335 14.0007 2.3335C12.4686 2.3335 10.9515 2.63526 9.53601 3.22157C8.12055 3.80787 6.83442 4.66723 5.75107 5.75058C3.56315 7.93851 2.33398 10.906 2.33398 14.0002C2.33398 18.9585 5.44898 23.2168 9.84732 24.8968C9.74232 23.9868 9.63732 22.4818 9.84732 21.4435L11.189 15.6802C11.189 15.6802 10.8507 15.0035 10.8507 13.9302C10.8507 12.3202 11.854 11.1185 12.9973 11.1185C14.0007 11.1185 14.4673 11.8535 14.4673 12.7985C14.4673 13.8018 13.8023 15.2368 13.464 16.6135C13.2657 17.7568 14.0707 18.7602 15.2373 18.7602C17.314 18.7602 18.924 16.5435 18.924 13.4168C18.924 10.6168 16.9173 8.7035 14.0357 8.7035C10.7457 8.7035 8.80899 11.1535 8.80899 13.7318C8.80899 14.7352 9.13565 15.7502 9.67232 16.4152C9.77732 16.4852 9.77732 16.5785 9.74232 16.7535L9.40399 18.0252C9.40399 18.2235 9.27565 18.2935 9.07732 18.1535C7.58398 17.5002 6.72065 15.3768 6.72065 13.6618C6.72065 9.97516 9.33398 6.62683 14.374 6.62683C18.3873 6.62683 21.514 9.5085 21.514 13.3352C21.514 17.3485 19.029 20.5685 15.4707 20.5685C14.339 20.5685 13.2307 19.9618 12.834 19.2502L12.0523 22.0152C11.784 23.0185 11.049 24.3602 10.5473 25.1652V25.1302Z" fill="#CC232A"/>
</svg>
