<svg width="269" height="81" viewBox="0 0 269 81" fill="none" xmlns="http://www.w3.org/2000/svg">
<g clip-path="url(#clip0_2620_871)">
<path d="M238.731 16.6627C237.018 16.4695 235.749 16.3305 234.448 16.1837C236.387 11.5565 241.986 9.67935 256.128 8.93776C255.442 12.0432 254.625 14.6001 251.346 16.2455C249.119 17.3656 247.569 19.8067 245.28 22.101C259.141 27.7247 268.135 36.253 268.922 51.7801C268.135 50.884 267.559 50.4591 267.294 49.8952C261.213 36.9714 250.085 31.255 236.722 28.7521C221.264 25.863 205.69 27.3308 190.147 27.5084C187.18 27.5393 184.221 27.5084 181.161 26.7205C187.305 25.6235 193.449 24.5189 199.593 23.4219C199.694 23.0357 199.795 22.6417 199.904 22.2555C197.607 20.7723 195.45 18.9801 192.974 17.8755C188.971 16.0833 184.789 14.6928 180.647 13.2251C177.399 12.0741 174.907 13.1324 172.875 15.8747C170.445 19.1655 167.829 22.3173 164.683 25.1678C166.17 20.6873 167.658 16.2069 169.262 11.3788C168.055 10.9462 167.035 10.2973 165.983 10.251C146.57 9.40898 127.164 8.19617 107.743 8.01077C96.4284 7.90263 80.5503 15.1177 72.0156 22.804C82.0377 24.0013 91.4057 25.1755 100.797 26.2415C110.149 27.2999 119.517 28.2577 128.854 29.6328C85.7522 31.9116 42.1596 27.8638 0.00769043 41.3283C1.56512 33.727 7.70141 32.4601 13.1524 30.6602C25.277 26.651 37.9156 25.5154 50.5542 24.2331C55.0162 23.785 59.5951 22.1705 63.6055 20.1002C73.4796 15.0095 82.9176 9.08454 92.8073 4.03245C96.3505 2.22483 100.649 1.45234 104.683 1.08927C111.777 0.440374 118.933 0.540797 126.051 0.193177C149.879 -0.973283 173.07 2.68059 195.948 9.02274C208.532 12.5144 221.225 15.6353 233.856 18.9879C236.006 19.5595 237.625 19.4591 238.747 16.6395L238.731 16.6627Z" fill="black"/>
</g>
<path d="M36.484 63.044C36.316 63.996 35.896 64.864 35.224 65.648C34.5707 66.432 33.684 67.0573 32.564 67.524C31.4627 67.972 30.2027 68.196 28.784 68.196C26.432 68.196 24.5933 67.636 23.268 66.516C21.9613 65.3773 21.2987 63.8187 21.28 61.84H27.132C27.0573 62.5493 27.1787 63.072 27.496 63.408C27.832 63.7253 28.2893 63.884 28.868 63.884C29.3347 63.884 29.7173 63.7627 30.016 63.52C30.3333 63.2773 30.5293 62.9413 30.604 62.512C30.6227 62.4373 30.632 62.3347 30.632 62.204C30.632 61.644 30.3893 61.2053 29.904 60.888C29.4373 60.552 28.6627 60.1507 27.58 59.684C26.5347 59.2547 25.6667 58.844 24.976 58.452C24.304 58.0413 23.7253 57.4813 23.24 56.772C22.7547 56.0627 22.512 55.176 22.512 54.112C22.512 53.7387 22.5587 53.272 22.652 52.712C22.932 51.2 23.772 50.0147 25.172 49.156C26.5907 48.2973 28.2707 47.868 30.212 47.868C32.6573 47.868 34.4867 48.4093 35.7 49.492C36.9133 50.5747 37.548 52.0773 37.604 54H31.696C31.7333 53.384 31.612 52.9267 31.332 52.628C31.0707 52.3293 30.688 52.18 30.184 52.18C29.7173 52.18 29.3347 52.3107 29.036 52.572C28.7373 52.8333 28.588 53.2253 28.588 53.748C28.588 54.252 28.812 54.6627 29.26 54.98C29.7267 55.2973 30.4733 55.6613 31.5 56.072C32.564 56.5013 33.432 56.912 34.104 57.304C34.7947 57.696 35.3827 58.2467 35.868 58.956C36.372 59.6653 36.624 60.5613 36.624 61.644C36.624 62.0173 36.5773 62.484 36.484 63.044ZM50.0178 47.868C51.8658 47.868 53.4618 48.232 54.8058 48.96C56.1685 49.688 57.2045 50.7147 57.9138 52.04C58.6418 53.3467 59.0058 54.868 59.0058 56.604C59.0058 57.3133 58.9312 58.116 58.7818 59.012C58.4645 60.804 57.8112 62.4 56.8218 63.8C55.8512 65.1813 54.6005 66.264 53.0698 67.048C51.5392 67.8133 49.8218 68.196 47.9178 68.196C46.0138 68.196 44.3805 67.8413 43.0178 67.132C41.6738 66.404 40.6472 65.396 39.9378 64.108C39.2285 62.8013 38.8738 61.28 38.8738 59.544C38.8738 58.648 38.9485 57.8173 39.0978 57.052C39.4152 55.2413 40.0685 53.6453 41.0578 52.264C42.0472 50.8827 43.3072 49.8093 44.8378 49.044C46.3872 48.26 48.1138 47.868 50.0178 47.868ZM49.5978 52.964C48.2538 52.964 47.1245 53.4027 46.2098 54.28C45.2952 55.1387 44.7072 56.3053 44.4458 57.78C44.3712 58.172 44.3338 58.6013 44.3338 59.068C44.3338 60.3187 44.6698 61.2987 45.3418 62.008C46.0325 62.7173 47.0218 63.072 48.3098 63.072C49.6352 63.072 50.7552 62.6333 51.6698 61.756C52.6032 60.8787 53.1912 59.712 53.4338 58.256C53.5272 57.7333 53.5738 57.2853 53.5738 56.912C53.5738 55.68 53.2285 54.7187 52.5378 54.028C51.8472 53.3187 50.8672 52.964 49.5978 52.964ZM76.5168 48.176L75.7328 52.572H67.8088L67.1928 56.1H73.1008L72.4008 60.244H66.4648L65.0928 68H59.5768L63.0488 48.176H76.5168ZM93.6954 48.176L92.9114 52.572H87.5914L84.8754 68H79.3874L82.0754 52.572H76.8114L77.5674 48.176H93.6954ZM123.254 48.176L115.162 68H108.33L107.714 55.764L102.842 68H96.0098L94.8618 48.176H100.798L100.602 61.672L106.034 48.176H112.054L112.754 61.672L117.318 48.176H123.254ZM135.271 64.696H128.243L126.563 68H120.767L131.491 48.26H137.819L141.599 68H135.775L135.271 64.696ZM134.627 60.552L133.619 54.112L130.343 60.552H134.627ZM155.401 48.176C157.511 48.176 159.107 48.652 160.189 49.604C161.272 50.5373 161.813 51.788 161.813 53.356C161.813 53.5987 161.776 54 161.701 54.56C161.44 55.96 160.833 57.1733 159.881 58.2C158.929 59.208 157.697 59.9173 156.185 60.328L159.377 68H153.301L150.557 60.692H149.997L148.737 68H143.221L146.693 48.176H155.401ZM150.669 56.996H153.357C154.888 56.996 155.784 56.3053 156.045 54.924C156.064 54.812 156.073 54.6533 156.073 54.448C156.073 53.3653 155.429 52.824 154.141 52.824H151.425L150.669 56.996ZM169.746 52.572L169.158 55.848H175.598L174.842 60.02H168.43L167.814 63.604H175.066L174.282 68H161.514L164.986 48.176H177.754L176.998 52.572H169.746Z" fill="#C60000"/>
<path d="M196.399 45.12C198.341 45.12 200.005 45.4827 201.391 46.208C202.799 46.912 203.866 47.9253 204.591 49.248C205.338 50.5493 205.733 52.064 205.775 53.792H199.119C198.906 52.896 198.458 52.2027 197.775 51.712C197.114 51.2 196.282 50.944 195.279 50.944C193.893 50.944 192.687 51.4667 191.663 52.512C190.639 53.536 189.967 54.912 189.647 56.64C189.562 57.088 189.519 57.5787 189.519 58.112C189.519 59.4347 189.85 60.48 190.511 61.248C191.173 61.9947 192.09 62.368 193.263 62.368C194.266 62.368 195.194 62.112 196.047 61.6C196.901 61.088 197.605 60.384 198.159 59.488H204.783C203.781 62.1333 202.181 64.2453 199.983 65.824C197.807 67.3813 195.269 68.16 192.367 68.16C190.426 68.16 188.751 67.7867 187.343 67.04C185.935 66.2933 184.869 65.248 184.143 63.904C183.418 62.5387 183.055 60.96 183.055 59.168C183.055 58.3147 183.13 57.472 183.279 56.64C183.663 54.4 184.463 52.4053 185.679 50.656C186.895 48.9067 188.421 47.552 190.255 46.592C192.111 45.6107 194.159 45.12 196.399 45.12ZM221.068 64.224H213.036L211.116 68H204.492L216.748 45.44H223.98L228.3 68H221.644L221.068 64.224ZM220.332 59.488L219.18 52.128L215.436 59.488H220.332ZM244.074 45.344C246.485 45.344 248.309 45.888 249.546 46.976C250.783 48.0427 251.402 49.472 251.402 51.264C251.402 51.5413 251.359 52 251.274 52.64C250.975 54.24 250.282 55.6267 249.194 56.8C248.106 57.952 246.698 58.7627 244.97 59.232L248.618 68H241.674L238.538 59.648H237.898L236.458 68H230.154L234.122 45.344H244.074ZM238.666 55.424H241.738C243.487 55.424 244.511 54.6347 244.81 53.056C244.831 52.928 244.842 52.7467 244.842 52.512C244.842 51.2747 244.106 50.656 242.634 50.656H239.53L238.666 55.424Z" fill="black"/>
<defs>
<clipPath id="clip0_2620_871">
<rect width="268.922" height="51.78" fill="white"/>
</clipPath>
</defs>
</svg>
