<svg width="100" height="16" viewBox="0 0 100 16" fill="none" xmlns="http://www.w3.org/2000/svg">
<path fill-rule="evenodd" clip-rule="evenodd" d="M100 0H0V16H100V0ZM10.1333 5.06689L8.6 1.7334C8.33334 1.2002 7.66666 1.2002 7.33334 1.6665L5.8 5C5.73333 5.2002 5.53333 5.3999 5.33333 5.3999L1.86666 5.93311C1.33333 6 1.13334 6.6665 1.46667 7.06689L4 9.6665C4.13334 9.7998 4.26667 10.0669 4.2 10.2666L3.6 13.8667C3.46667 14.4668 4.06667 14.8667 4.53333 14.6001L7.66666 12.8667C7.86667 12.7334 8.06667 12.7334 8.26666 12.8667L11.4 14.6001C11.8667 14.8667 12.4 14.3999 12.3333 13.8667L11.7333 10.2666C11.7333 10.0669 11.8 9.7998 11.9333 9.6665L14.4667 7.06689C14.8667 6.6665 14.6667 6 14.0667 6L10.6 5.4668C10.4 5.3999 10.2 5.2666 10.1333 5.06689ZM29.6 1.7334L31.1333 5.06689C31.2 5.2666 31.4 5.3999 31.6 5.4668L35.0667 6C35.6667 6 35.8667 6.6665 35.4667 7.06689L32.9333 9.6665C32.8 9.7998 32.7333 10.0669 32.7333 10.2666L33.3333 13.8667C33.4 14.3999 32.8667 14.8667 32.4 14.6001L29.2667 12.8667C29.0667 12.7334 28.8667 12.7334 28.6667 12.8667L25.5333 14.6001C25.0667 14.8667 24.4667 14.4668 24.6 13.8667L25.2 10.2666C25.2667 10.0669 25.1333 9.7998 25 9.6665L22.4667 7.06689C22.1333 6.6665 22.3333 6 22.8667 5.93311L26.3333 5.3999C26.5333 5.3999 26.7333 5.2002 26.8 5L28.3333 1.6665C28.6667 1.2002 29.3333 1.2002 29.6 1.7334ZM52.1333 5.06689L50.6 1.7334C50.3333 1.2002 49.6667 1.2002 49.3333 1.6665L47.8 5C47.7333 5.2002 47.5333 5.3999 47.3333 5.3999L43.8667 5.93311C43.3333 6 43.1333 6.6665 43.4667 7.06689L46 9.6665C46.1333 9.7998 46.2667 10.0669 46.2 10.2666L45.6 13.8667C45.4667 14.4668 46.0667 14.8667 46.5333 14.6001L49.6667 12.8667C49.8667 12.7334 50.0667 12.7334 50.2667 12.8667L53.4 14.6001C53.8667 14.8667 54.4 14.3999 54.3333 13.8667L53.7333 10.2666C53.7333 10.0669 53.8 9.7998 53.9333 9.6665L56.4667 7.06689C56.8667 6.6665 56.6667 6 56.0667 6L52.6 5.4668C52.4 5.3999 52.2 5.2666 52.1333 5.06689ZM71.6 1.7334L73.1333 5.06689C73.2 5.2666 73.4 5.3999 73.6 5.4668L77.0667 6C77.6667 6 77.8667 6.6665 77.4667 7.06689L74.9333 9.6665C74.8 9.7998 74.7333 10.0669 74.7333 10.2666L75.3333 13.8667C75.4 14.3999 74.8667 14.8667 74.4 14.6001L71.2667 12.8667C71.0667 12.7334 70.8667 12.7334 70.6667 12.8667L67.5333 14.6001C67.0667 14.8667 66.4667 14.4668 66.6 13.8667L67.2 10.2666C67.2667 10.0669 67.1333 9.7998 67 9.6665L64.4667 7.06689C64.1333 6.6665 64.3333 6 64.8667 5.93311L68.3333 5.3999C68.5333 5.3999 68.7333 5.2002 68.8 5L70.3333 1.6665C70.6667 1.2002 71.3333 1.2002 71.6 1.7334ZM94.1333 5.06689L92.6 1.7334C92.3333 1.2002 91.6667 1.2002 91.3333 1.6665L89.8 5C89.7333 5.2002 89.5333 5.3999 89.3333 5.3999L85.8667 5.93311C85.3333 6 85.1333 6.6665 85.4667 7.06689L88 9.6665C88.1333 9.7998 88.2667 10.0669 88.2 10.2666L87.6 13.8667C87.4667 14.4668 88.0667 14.8667 88.5333 14.6001L91.6667 12.8667C91.8667 12.7334 92.0667 12.7334 92.2667 12.8667L95.4 14.6001C95.8667 14.8667 96.4 14.3999 96.3333 13.8667L95.7333 10.2666C95.7333 10.0669 95.8 9.7998 95.9333 9.6665L98.4667 7.06689C98.8667 6.6665 98.6667 6 98.0667 6L94.6 5.4668C94.4 5.3999 94.2 5.2666 94.1333 5.06689Z" fill="white"/>
</svg>
