<svg width="16" height="19" viewBox="0 0 16 19" fill="none" xmlns="http://www.w3.org/2000/svg">
<path d="M16.0001 3.22268C15.9534 3.43619 15.9203 3.65399 15.8577 3.86285C15.2156 6.00618 12.5042 6.71001 10.8945 5.14927C10.7791 5.03733 10.7075 5.0427 10.5824 5.12031C9.03741 6.07806 7.48918 7.03046 5.94168 7.98428C5.90141 8.00895 5.86294 8.03613 5.81476 8.06796C6.08406 8.78789 6.0837 9.50818 5.81332 10.2317C6.4659 10.634 7.1095 11.031 7.75345 11.4276C8.70734 12.0156 9.66267 12.6014 10.614 13.1933C10.7172 13.2573 10.774 13.2594 10.869 13.1704C11.7416 12.3503 12.7681 12.0835 13.909 12.454C15.0487 12.8242 15.7179 13.6432 15.9534 14.8123C15.971 14.8989 15.985 14.9861 16.0005 15.0734V15.5018C15.9886 15.5526 15.9731 15.6031 15.9656 15.6546C15.798 16.8008 15.1749 17.6051 14.1117 18.0636C13.8698 18.168 13.6019 18.2135 13.3459 18.2857H12.6282C12.3381 18.2002 12.0346 18.1455 11.7606 18.0246C10.3447 17.4002 9.65008 15.8452 10.1215 14.3781C10.1642 14.2455 10.1416 14.1839 10.0222 14.111C8.47687 13.1647 6.93512 12.2126 5.39192 11.262C5.34195 11.2313 5.29017 11.2034 5.23192 11.1698C4.92055 11.487 4.57179 11.7409 4.16406 11.9104C2.3548 12.6618 0.31507 11.5124 0.0324637 9.58042C-0.242592 7.69924 1.29449 6.03157 3.19651 6.15782C3.93826 6.20681 4.58222 6.49507 5.11399 7.01543C5.19777 7.09733 5.2499 7.12523 5.36568 7.05334C6.92037 6.08808 8.47867 5.12889 10.0395 4.17292C10.1495 4.10533 10.1617 4.04954 10.1243 3.93187C9.53754 2.09719 10.7428 0.249624 12.6721 0.019305C14.2545 -0.169886 15.7998 1.0536 15.9641 2.62435C15.9703 2.68157 15.9879 2.73772 16.0001 2.79422V3.22268ZM1.105 9.14553C1.10392 10.1948 1.94923 11.041 3.00019 11.0424C4.04936 11.0439 4.90869 10.1988 4.91516 9.15876C4.92199 8.11231 4.05979 7.25255 3.00415 7.25326C1.95103 7.25398 1.10572 8.09622 1.10464 9.14553H1.105ZM11.0789 2.99522C11.0761 4.0406 11.9246 4.89571 12.9698 4.90072C14.0193 4.90608 14.8895 4.04381 14.8887 2.99951C14.8877 1.95663 14.0348 1.11118 12.9828 1.10975C11.9257 1.10867 11.0818 1.94412 11.0789 2.99486V2.99522ZM12.9673 17.186C14.0211 17.191 14.8801 16.3527 14.8887 15.3112C14.8974 14.2651 14.0359 13.3982 12.9853 13.395C11.9393 13.3918 11.0825 14.2415 11.0789 15.2851C11.0757 16.3376 11.9131 17.181 12.9673 17.186Z" fill="black"/>
</svg>
