<svg width="26" height="17" viewBox="0 0 26 17" fill="none" xmlns="http://www.w3.org/2000/svg">
<path d="M26.0002 9.1817C25.8849 9.76506 25.7628 10.3552 25.6475 10.9386C25.4915 11.7593 25.3422 12.5869 25.1862 13.4077C25.1184 13.7604 24.942 13.9096 24.5757 13.9164C24.3112 13.9232 24.0534 13.9164 23.8024 13.9164C23.2462 15.3952 22.378 16.0938 21.1163 16.0871C19.8681 16.0803 18.9795 15.368 18.4504 13.9164C18.3758 13.9164 18.2944 13.9164 18.213 13.9164C16.1848 13.9164 14.1499 13.9164 12.1217 13.9096C11.9249 13.9096 11.8503 13.9707 11.7961 14.1538C11.4501 15.3138 10.3919 16.0871 9.19129 16.0803C8.00422 16.0735 6.94603 15.2799 6.61365 14.1199C6.55938 13.9368 6.47798 13.9029 6.31519 13.9096C5.86071 13.9164 5.39945 13.9164 4.94497 13.9096C4.57867 13.9029 4.33447 13.6858 4.33447 13.3738C4.33447 13.0549 4.57867 12.8379 4.94497 12.8379C5.47406 12.8311 6.00994 12.8379 6.54582 12.8379C6.58652 12.7022 6.62043 12.5801 6.66792 12.458C7.06134 11.3795 8.12632 10.6401 9.24556 10.6672C10.4326 10.6944 11.4501 11.4473 11.7893 12.5733C11.8503 12.7904 11.9453 12.8447 12.1488 12.8379C12.9967 12.8243 13.8378 12.8311 14.7264 12.8311C15.5472 9.23597 16.368 5.63405 17.1955 2.00501C17.0463 2.00501 16.9378 2.00501 16.8292 2.00501C12.9289 2.00501 9.02849 2.00501 5.12811 2.00501C4.99923 2.00501 4.87035 2.00501 4.74825 1.97788C4.50405 1.92361 4.34126 1.70655 4.33447 1.46235C4.33447 1.21815 4.49727 1.00108 4.74147 0.940035C4.83643 0.919686 4.94497 0.912903 5.03993 0.912903C9.25912 0.912903 13.4851 0.912903 17.7043 0.912903C18.2741 0.912903 18.4911 1.18423 18.3623 1.74046C18.1791 2.54089 17.996 3.33453 17.806 4.16209C17.9349 4.16209 18.0299 4.16209 18.1316 4.16209C19.2848 4.16887 20.4379 4.13495 21.5843 4.20279C23.7685 4.33845 25.6475 6.14958 25.9392 8.32023C25.9527 8.40163 25.9731 8.48303 25.9934 8.56442C26.0002 8.78149 26.0002 8.98499 26.0002 9.1817ZM18.464 12.8311C18.7896 11.488 19.8817 10.7147 21.0688 10.674C22.3033 10.6333 23.2259 11.3591 23.7889 12.8243C23.9178 12.8243 24.0534 12.8243 24.1959 12.8243C24.3926 11.7729 24.5825 10.7351 24.7792 9.69723C24.8674 9.2224 24.9624 8.76114 24.8538 8.27274C24.474 6.54301 22.9885 5.30167 21.2112 5.26776C20.3226 5.24741 19.434 5.26097 18.5454 5.26097C18.2266 5.26097 17.9078 5.26097 17.5686 5.26097C16.992 7.79113 16.4223 10.3077 15.8457 12.8311C16.7478 12.8311 17.5958 12.8311 18.464 12.8311ZM21.1298 11.7661C20.2277 11.7661 19.5019 12.4851 19.5019 13.3873C19.5019 14.2827 20.248 15.0221 21.1366 15.0085C22.0252 15.0017 22.7443 14.2759 22.751 13.3941C22.751 12.4919 22.032 11.7661 21.1298 11.7661ZM10.8193 13.4145C10.8193 12.4852 10.1342 11.7729 9.22521 11.7661C8.32303 11.7593 7.59722 12.4648 7.59044 13.3534C7.59044 14.2827 8.30947 15.0221 9.21164 15.0085C10.1002 15.0017 10.8193 14.2895 10.8193 13.4145Z" fill="#616161"/>
<path d="M3.79924 10.6673C2.73427 10.6673 1.66929 10.674 0.60432 10.6673C0.136275 10.6673 -0.135056 10.2603 0.0684422 9.8804C0.183758 9.66333 0.380472 9.58871 0.617886 9.58871C1.61503 9.58871 2.61217 9.58871 3.60931 9.58871C4.72855 9.58871 5.841 9.58871 6.96024 9.58871C7.2994 9.58871 7.51647 9.74473 7.57073 10.0093C7.64535 10.3756 7.40115 10.6605 6.99415 10.6605C5.92918 10.674 4.86421 10.6673 3.79924 10.6673Z" fill="#616161"/>
<path d="M4.32946 7.41805C3.43407 7.41805 2.53868 7.42483 1.6365 7.41805C1.31091 7.41805 1.08028 7.17385 1.08706 6.87539C1.09384 6.57692 1.32447 6.35307 1.65007 6.33951C1.6772 6.33951 1.69755 6.33951 1.72469 6.33951C3.46799 6.33951 5.21129 6.33951 6.95458 6.33951C7.34123 6.33951 7.57864 6.54979 7.57186 6.88895C7.57186 7.21455 7.34123 7.41805 6.96137 7.41805C6.08633 7.42483 5.21128 7.41805 4.32946 7.41805Z" fill="#616161"/>
<path d="M4.85769 4.16885C4.15901 4.16885 3.45355 4.17564 2.75488 4.16885C2.36145 4.16207 2.13082 3.89074 2.19187 3.53123C2.23256 3.28703 2.44285 3.0971 2.71418 3.0971C4.15901 3.09031 5.60385 3.09031 7.04868 3.0971C7.3675 3.0971 7.57778 3.32773 7.58456 3.62619C7.59134 3.93822 7.37428 4.16885 7.0419 4.16885C6.30931 4.17564 5.5835 4.16885 4.85769 4.16885Z" fill="#616161"/>
</svg>
