<svg width="125" height="45" viewBox="0 0 125 45" fill="none" xmlns="http://www.w3.org/2000/svg">
<rect width="125" height="44.7947" rx="5" fill="#5A31F4"/>
<mask id="mask0_286_375" style="mask-type:luminance" maskUnits="userSpaceOnUse" x="15" y="11" width="95" height="23">
<path d="M110 11H15V33.7947H110V11Z" fill="white"/>
</mask>
<g mask="url(#mask0_286_375)">
<path d="M39.3377 18.1664C38.5759 16.5695 37.1314 15.5379 34.9547 15.5379C34.2866 15.5495 33.6301 15.7144 33.0358 16.0196C32.4416 16.3248 31.9254 16.7624 31.5272 17.2985L31.4477 17.3952V11.1364C31.4477 11.1002 31.4334 11.0655 31.4078 11.0399C31.3822 11.0144 31.3474 11 31.3112 11H28.2336C28.1979 11.0006 28.1638 11.0153 28.1387 11.0408C28.1136 11.0663 28.0996 11.1006 28.0996 11.1364V29.0896C28.0996 29.1251 28.1138 29.1591 28.1389 29.1842C28.164 29.2094 28.1981 29.2235 28.2336 29.2235H31.5296C31.5654 29.2235 31.5998 29.2095 31.6253 29.1844C31.6508 29.1593 31.6655 29.1253 31.6661 29.0896V21.4347C31.6661 19.9469 32.6589 18.893 34.2473 18.893C35.9847 18.893 36.424 20.3213 36.424 21.7769V29.0896C36.424 29.1251 36.4381 29.1591 36.4632 29.1842C36.4884 29.2094 36.5225 29.2235 36.558 29.2235H39.8465C39.8824 29.2235 39.9167 29.2095 39.9422 29.1844C39.9677 29.1593 39.9825 29.1253 39.9831 29.0896V21.3404C39.9831 21.0751 39.9831 20.8147 39.9484 20.5618C39.8918 19.733 39.685 18.9213 39.3377 18.1664Z" fill="white"/>
<path d="M22.8802 20.8272C22.8802 20.8272 21.2024 20.4329 20.5844 20.2742C19.9664 20.1155 18.8868 19.7783 18.8868 18.9624C18.8868 18.1466 19.7579 17.8862 20.6415 17.8862C21.5251 17.8862 22.5079 18.0995 22.5849 19.079C22.588 19.1143 22.6042 19.1471 22.6304 19.171C22.6566 19.1949 22.6908 19.2081 22.7263 19.2079L25.9752 19.1955C25.9943 19.1956 26.0132 19.1917 26.0307 19.1841C26.0483 19.1765 26.0641 19.1654 26.0771 19.1514C26.0902 19.1375 26.1002 19.121 26.1065 19.103C26.1129 19.0849 26.1155 19.0658 26.1141 19.0467C25.9131 15.9124 23.1606 14.7916 20.6216 14.7916C17.6111 14.7916 15.4096 16.7753 15.4096 18.9624C15.4096 20.5594 15.8613 22.0572 19.4129 23.0986C20.0359 23.2797 20.8823 23.5152 21.6219 23.7211C22.5104 23.969 22.9894 24.3435 22.9894 24.9336C22.9894 25.618 21.9966 26.0941 21.0212 26.0941C19.609 26.0941 18.6063 25.5709 18.5244 24.6311C18.5201 24.5967 18.5034 24.565 18.4773 24.5422C18.4512 24.5193 18.4176 24.5068 18.3829 24.5071L15.1416 24.522C15.1226 24.522 15.1037 24.5258 15.0862 24.5332C15.0688 24.5406 15.0529 24.5515 15.0397 24.5651C15.0265 24.5788 15.0162 24.5949 15.0094 24.6127C15.0026 24.6304 14.9994 24.6493 15.0001 24.6683C15.149 27.6266 18.0082 29.221 20.6738 29.221C24.6449 29.221 26.4393 26.9893 26.4393 24.8989C26.4443 23.9169 26.2184 21.6802 22.8802 20.8272Z" fill="white"/>
<path d="M64.6754 15.5329C63.0252 15.5329 61.6426 16.4455 60.7515 17.5465V15.6619C60.7515 15.6268 60.7377 15.5931 60.713 15.5681C60.6888 15.543 60.6552 15.5286 60.6199 15.528H57.5376C57.5021 15.528 57.4678 15.5421 57.4427 15.5672C57.4176 15.5923 57.4033 15.6264 57.4033 15.6619V33.2679C57.4042 33.3029 57.4187 33.3365 57.4438 33.3609C57.4689 33.3855 57.5026 33.3994 57.5376 33.3994H60.836C60.8708 33.3994 60.9043 33.3855 60.9289 33.3609C60.9536 33.3363 60.9674 33.3027 60.9674 33.2679V27.4802H61.0171C61.5407 28.2787 62.9728 29.2359 64.8444 29.2359C68.3634 29.2359 71.2973 26.3197 71.2973 22.3795C71.2999 18.5979 68.381 15.5329 64.6754 15.5329ZM64.3702 25.8808C63.6757 25.8981 62.9911 25.7081 62.4051 25.3351C61.819 24.9622 61.3571 24.4232 61.0788 23.7869C60.8006 23.1506 60.7183 22.4459 60.8429 21.7628C60.967 21.0796 61.2924 20.449 61.777 19.9513C62.2618 19.4536 62.8839 19.1116 63.5641 18.9688C64.2441 18.8259 64.9514 18.8888 65.5955 19.1494C66.2398 19.4099 66.7915 19.8563 67.1808 20.4316C67.5699 21.007 67.7785 21.6851 67.7805 22.3795C67.7875 22.8333 67.7048 23.2842 67.5373 23.7061C67.3698 24.128 67.1203 24.5127 66.8034 24.838C66.4867 25.1634 66.1087 25.423 65.6908 25.6019C65.2733 25.7809 64.8246 25.8756 64.3702 25.8808Z" fill="white"/>
<path d="M47.6429 14.7594C44.5678 14.7594 43.034 15.8034 41.8027 16.6391L41.7656 16.6639C41.7022 16.7073 41.6575 16.7731 41.6403 16.848C41.6234 16.9229 41.6353 17.0015 41.6738 17.0681L42.8898 19.1609C42.9127 19.2001 42.944 19.2338 42.9812 19.2595C43.0186 19.2852 43.0611 19.3024 43.1059 19.3097C43.1497 19.3176 43.1946 19.3157 43.2375 19.3041C43.2804 19.2925 43.3203 19.2716 43.3542 19.2428L43.4508 19.1634C44.0837 18.6328 45.0988 17.9235 47.556 17.7301C48.9235 17.6211 50.105 17.9781 50.976 18.7915C51.9341 19.6743 52.5076 21.1001 52.5076 22.6053C52.5076 25.3751 50.8743 27.1159 48.2509 27.1506C46.0891 27.1382 44.6371 26.0124 44.6371 24.3485C44.6371 23.4657 45.0367 22.8904 45.8162 22.3151C45.8756 22.2726 45.9176 22.21 45.9346 22.1389C45.9515 22.0678 45.9421 21.993 45.908 21.9283L44.8158 19.8652C44.7958 19.8283 44.7685 19.7957 44.7357 19.7693C44.7029 19.7429 44.6653 19.7232 44.6248 19.7114C44.5834 19.6992 44.5401 19.6957 44.4974 19.7012C44.4545 19.7068 44.4133 19.7212 44.3766 19.7437C43.1506 20.4702 41.6465 21.7994 41.7284 24.3535C41.8276 27.6044 44.533 30.0866 48.0498 30.1883H48.2261H48.4668C52.6462 30.0519 55.6643 26.9522 55.6643 22.7491C55.6643 18.8906 52.8498 14.7594 47.6429 14.7594Z" fill="white"/>
<path d="M84.2954 16.7432H82.2004C82.1515 16.7438 82.1044 16.7636 82.0697 16.7984C82.0347 16.8331 82.0149 16.88 82.0146 16.9292V21.3207C82.0149 21.3697 82.0349 21.4163 82.0699 21.4506C82.1047 21.485 82.1515 21.5043 82.2004 21.5043H84.2954C85.571 21.5043 86.5118 20.5 86.5118 19.1237C86.5118 17.7475 85.571 16.7432 84.2954 16.7432Z" fill="white"/>
<path d="M90.7314 24.5121C90.7314 25.1493 91.2699 25.5039 92.2081 25.5039C93.4837 25.5039 94.2381 24.8146 94.2381 23.5921V23.24L92.3273 23.3392C91.3194 23.3887 90.7314 23.8078 90.7314 24.5121Z" fill="white"/>
<path d="M106.243 11.0398H78.0981C77.6367 11.0398 77.1792 11.1307 76.7529 11.3073C76.3262 11.4839 75.9387 11.7428 75.6125 12.0691C75.286 12.3954 75.0272 12.7828 74.8507 13.2091C74.674 13.6354 74.5835 14.0922 74.584 14.5536V29.9477C74.584 30.8791 74.9541 31.7725 75.6132 32.4314C76.2723 33.0903 77.1662 33.4607 78.0981 33.4614H106.243C106.706 33.4627 107.164 33.373 107.591 33.1973C108.019 33.0217 108.407 32.7634 108.735 32.4376C109.062 32.1117 109.322 31.7244 109.5 31.298C109.678 30.8717 109.769 30.4145 109.77 29.9526V14.5585C109.771 14.0957 109.681 13.6373 109.504 13.2096C109.327 12.782 109.067 12.3935 108.739 12.0664C108.411 11.7394 108.022 11.4804 107.594 11.3042C107.166 11.128 106.707 11.0382 106.243 11.0398ZM84.4022 23.2326H82.1884C82.1391 23.2326 82.092 23.2522 82.0568 23.287C82.022 23.3219 82.0022 23.3692 82.0022 23.4186V26.5678C82.0022 26.6171 81.9826 26.6644 81.9479 26.6993C81.9129 26.7342 81.8656 26.7538 81.8163 26.7538H80.2574C80.2085 26.7531 80.1612 26.7333 80.1264 26.6986C80.0917 26.6639 80.0723 26.6169 80.0714 26.5678V15.2082C80.0714 15.1589 80.091 15.1116 80.1262 15.0767C80.161 15.0418 80.2081 15.0222 80.2574 15.0222H84.4022C86.7502 15.0222 88.4304 16.7308 88.4304 19.1286C88.4304 21.5265 86.7626 23.2375 84.415 23.2375L84.4022 23.2326ZM96.0674 26.5653C96.0678 26.59 96.0634 26.6144 96.0539 26.6373C96.0447 26.6601 96.0311 26.6809 96.0139 26.6984C95.9963 26.716 95.9758 26.7299 95.9529 26.7394C95.9305 26.7489 95.9058 26.7538 95.8812 26.7538H94.4094C94.3848 26.7538 94.3604 26.7489 94.3377 26.7394C94.3148 26.7299 94.2941 26.716 94.277 26.6984C94.2598 26.6809 94.2459 26.6601 94.2369 26.6373C94.2277 26.6144 94.223 26.59 94.2235 26.5653V26.2256C94.2257 26.1958 94.2186 26.166 94.2026 26.1406C94.187 26.1153 94.1634 26.0957 94.1352 26.0848C94.1075 26.0739 94.0769 26.0724 94.0481 26.0803C94.0188 26.0883 93.9935 26.1053 93.9753 26.1289C93.5358 26.6075 92.821 26.9546 91.6818 26.9546C90.0043 26.9546 88.8945 26.0818 88.8945 24.5741C88.8784 24.2065 88.9544 23.8407 89.1157 23.5098C89.2767 23.179 89.5184 22.8936 89.8181 22.6796C90.4235 22.2258 91.3616 21.9903 92.7539 21.9357L94.2305 21.8861V21.4546C94.2305 20.5842 93.6449 20.2148 92.7042 20.2148C91.7636 20.2148 91.1704 20.547 91.0317 21.0901C91.0205 21.1284 90.997 21.162 90.9644 21.1854C90.9323 21.2088 90.8929 21.2206 90.8528 21.219H89.396C89.3692 21.2197 89.3425 21.2145 89.3179 21.2038C89.2937 21.1931 89.2715 21.1771 89.2536 21.157C89.236 21.1369 89.2228 21.1132 89.2153 21.0875C89.2076 21.0618 89.2057 21.0348 89.2098 21.0083C89.4284 19.7188 90.4954 18.7393 92.7715 18.7393C95.1889 18.7393 96.0599 19.8626 96.0599 22.0076L96.0674 26.5653ZM105.236 19.1956L101.96 27.9267C101.215 29.9551 99.9118 30.4759 98.4847 30.4759C98.216 30.4824 97.9476 30.4498 97.6881 30.3792C97.6476 30.3683 97.6122 30.3444 97.5862 30.3112C97.5609 30.2781 97.5471 30.2375 97.5466 30.1956V28.869C97.5466 28.8412 97.5525 28.8138 97.5642 28.7886C97.5761 28.7635 97.593 28.7412 97.6144 28.7235C97.636 28.7057 97.6608 28.6929 97.6877 28.6859C97.7145 28.6789 97.7427 28.6779 97.77 28.683C97.9951 28.7256 98.2235 28.7472 98.4526 28.7475C98.8472 28.7673 99.2371 28.6541 99.5599 28.4262C99.8823 28.1982 100.119 27.8686 100.232 27.4903L100.329 27.1852C100.344 27.1444 100.344 27.0996 100.329 27.0588L97.266 19.1981C97.2568 19.17 97.2541 19.14 97.2585 19.1107C97.2632 19.0814 97.2744 19.0536 97.2911 19.0294C97.3085 19.0053 97.3312 18.9855 97.3574 18.9717C97.3835 18.9579 97.4128 18.9505 97.4423 18.9501H98.9317C98.9697 18.9505 99.0067 18.9622 99.0382 18.9839C99.0696 19.0055 99.0939 19.0361 99.1077 19.0716L101.188 24.6163C101.202 24.6525 101.226 24.6837 101.258 24.7057C101.29 24.7277 101.327 24.7395 101.366 24.7395C101.405 24.7395 101.443 24.7277 101.475 24.7057C101.507 24.6837 101.531 24.6525 101.545 24.6163L103.35 19.0865C103.361 19.0488 103.385 19.0159 103.418 18.9927C103.45 18.9695 103.488 18.9572 103.528 18.9575H105.055C105.084 18.9574 105.113 18.9643 105.14 18.9774C105.166 18.9906 105.189 19.0098 105.206 19.0334C105.224 19.0571 105.236 19.0845 105.241 19.1135C105.246 19.1425 105.244 19.1723 105.236 19.2005V19.1956Z" fill="white"/>
</g>
</svg>
