<svg width="24" height="25" viewBox="0 0 24 25" fill="none" xmlns="http://www.w3.org/2000/svg">
<path d="M24 12C24 5.3719 18.6281 0 12 0C5.3719 0 0 5.3719 0 12C0 17.9907 4.3875 22.9547 10.125 23.8547V15.4688H7.0781V12H10.125V9.35625C10.125 6.3492 11.9156 4.6875 14.6578 4.6875C15.9703 4.6875 17.3438 4.92188 17.3438 4.92188V7.875H15.8297C14.3391 7.875 13.875 8.8008 13.875 9.75V12H17.2031L16.6711 15.4688H13.875V23.8547C19.6125 22.9547 24 17.9907 24 12Z" fill="#1877F2"/>
<path d="M16.593 15.7812L17.125 12.3125H13.7969V10.0625C13.7969 9.1133 14.261 8.1875 15.7516 8.1875H17.2656V5.23438C17.2656 5.23438 15.8922 5 14.5797 5C11.8376 5 10.0469 6.6617 10.0469 9.66875V12.3125H7V15.7812H10.0469V24.1672C10.6586 24.2633 11.2844 24.3125 11.9219 24.3125C12.5594 24.3125 13.1852 24.2633 13.7969 24.1672V15.7812H16.593Z" fill="white"/>
</svg>
