<svg width="24" height="24" viewBox="0 0 24 24" fill="none" xmlns="http://www.w3.org/2000/svg">
<path d="M12 24C18.6274 24 24 18.6274 24 12C24 5.3726 18.6274 0 12 0C5.3726 0 0 5.3726 0 12C0 18.6274 5.3726 24 12 24Z" fill="url(#paint0_linear_679_1391)"/>
<path d="M5.2071 11.2825C6.60989 10.5098 8.17579 9.86489 9.63889 9.21669C12.156 8.15499 14.6831 7.11169 17.2357 6.14039C17.7323 5.97489 18.6247 5.81304 18.7122 6.54904C18.6643 7.59084 18.4672 8.62654 18.332 9.66224C17.9888 11.9398 17.5922 14.2096 17.2055 16.4797C17.0722 17.2359 16.125 17.6273 15.5189 17.1434C14.0623 16.1595 12.5945 15.1852 11.1565 14.1785C10.6854 13.6999 11.1222 13.0125 11.5429 12.6707C12.7426 11.4884 14.0149 10.4839 15.1519 9.24054C15.4586 8.49989 14.5524 9.12409 14.2535 9.31534C12.6111 10.4471 11.0089 11.648 9.27734 12.6427C8.39284 13.1296 7.36194 12.7135 6.47784 12.4418C5.68513 12.1136 4.52352 11.783 5.20702 11.2825L5.2071 11.2825Z" fill="white"/>
<defs>
<linearGradient id="paint0_linear_679_1391" x1="9.0014" y1="1.0008" x2="3.0014" y2="15" gradientUnits="userSpaceOnUse">
<stop stop-color="#37AEE2"/>
<stop offset="1" stop-color="#1E96C8"/>
</linearGradient>
</defs>
</svg>
