<svg width="45" height="44" viewBox="0 0 45 44" fill="none" xmlns="http://www.w3.org/2000/svg">
<path fill-rule="evenodd" clip-rule="evenodd" d="M14.1439 1.03687L17.7032 4.59616L12.6452 9.6541L9.08594 6.09481C8.33662 8.71744 8.89861 11.6211 10.9593 13.6817C13.1136 15.836 16.2045 16.3044 18.9208 15.274L38.6843 35.0375C39.9019 36.2551 41.8689 36.2551 43.0865 35.0375C44.3042 33.8198 44.3042 31.8528 43.0865 30.6352L23.3231 10.8717C24.3534 8.15545 23.9788 5.06449 21.7308 2.91018C19.6701 0.849538 16.7665 0.287545 14.1439 1.03687Z" fill="white" stroke="#022344" stroke-width="2" stroke-linecap="round" stroke-linejoin="round"/>
<path fill-rule="evenodd" clip-rule="evenodd" d="M21.5539 42.0735L27.5485 36.0789C29.6091 36.9219 32.0444 36.4536 33.7304 34.8613L43.2843 25.3074C44.1273 24.4644 44.1273 23.1531 43.2843 22.4038C42.4413 21.5608 41.13 21.5608 40.3807 22.4038L40.7553 22.0291C41.7856 20.9988 41.7856 19.4065 40.7553 18.4698C39.725 17.4395 38.1327 17.4395 37.196 18.4698L38.6947 16.9712C39.5377 16.1282 39.5377 14.8169 38.6947 14.0675L38.4137 13.7865C37.5707 12.9436 36.2594 12.9436 35.51 13.7865L34.5734 14.7232C35.4164 13.8802 35.4164 12.5689 34.5734 11.8196L34.3861 11.6322C33.5431 10.7893 32.2318 10.7893 31.4824 11.6322L21.6476 21.0925L23.5209 18.9382L20.8982 16.3155L18.0883 19.1255C16.0276 21.1861 15.934 24.4644 17.7136 26.7124L12 32.426" fill="white"/>
<path d="M21.5539 42.0735L27.5485 36.0789C29.6091 36.9219 32.0444 36.4536 33.7304 34.8613L43.2843 25.3074C44.1273 24.4644 44.1273 23.1531 43.2843 22.4038C42.4413 21.5608 41.13 21.5608 40.3807 22.4038L40.7553 22.0291C41.7856 20.9988 41.7856 19.4065 40.7553 18.4698C39.725 17.4395 38.1327 17.4395 37.196 18.4698L38.6947 16.9712C39.5377 16.1282 39.5377 14.8169 38.6947 14.0675L38.4137 13.7865C37.5707 12.9436 36.2594 12.9436 35.5101 13.7865L34.5734 14.7232C35.4164 13.8802 35.4164 12.5689 34.5734 11.8196L34.3861 11.6322C33.5431 10.7893 32.2318 10.7893 31.4824 11.6322L21.6476 21.0925L23.5209 18.9382L20.8982 16.3155L18.0883 19.1255C16.0276 21.1861 15.934 24.4644 17.7136 26.7124L12 32.426" stroke="#022344" stroke-width="2" stroke-linecap="round" stroke-linejoin="round"/>
<path fill-rule="evenodd" clip-rule="evenodd" d="M32.877 14.9924L33.813 13.9627L32.877 14.9924Z" fill="#F3F3F3"/>
<path d="M32.877 14.9924L33.813 13.9627" stroke="#022344" stroke-width="2" stroke-linecap="round" stroke-linejoin="round"/>
<path d="M8.1489 43.2801C12.6494 43.2801 16.2978 39.6317 16.2978 35.1312C16.2978 30.6307 12.6494 26.9823 8.1489 26.9823C3.64839 26.9823 0 30.6307 0 35.1312C0 39.6317 3.64839 43.2801 8.1489 43.2801Z" fill="#5DB04A"/>
<path d="M5.33789 35.5057L7.67953 37.5664L11.6135 33.4451" stroke="#F3F3F3" stroke-width="2" stroke-linecap="round" stroke-linejoin="round"/>
</svg>
