<svg width="25" height="22" viewBox="0 0 25 22" fill="none" xmlns="http://www.w3.org/2000/svg">
<path d="M12.5428 21.9193C9.13842 19.5179 5.95039 16.9023 3.34874 13.6553C2.22154 12.246 1.25944 10.7409 0.786932 8.97088C-0.209324 5.2673 2.20447 1.54117 6.04148 1.00001C8.67159 0.627957 10.7837 1.60881 12.3321 3.75092C12.4061 3.85238 12.4688 3.95385 12.5598 4.09478C12.6225 4.00458 12.6737 3.9313 12.7192 3.86366C14.1652 1.637 16.7327 0.599772 19.1238 1.00564C21.8507 1.47352 23.8489 3.36759 24.4182 5.95502C24.7654 7.55033 24.458 9.06107 23.7749 10.5154C23.0063 12.1558 21.919 13.582 20.7121 14.9237C18.3325 17.5562 15.6112 19.8054 12.6965 21.8291C12.6509 21.8517 12.6111 21.8742 12.5428 21.9193Z" fill="#FFE502"/>
</svg>
