<svg width="24" height="22" viewBox="0 0 24 22" fill="none" xmlns="http://www.w3.org/2000/svg">
<path d="M11.9808 21.2078C8.5764 18.7827 5.38838 16.1412 2.78673 12.8621C1.65953 11.4388 0.697431 9.91882 0.224921 8.13125C-0.771336 4.39102 1.64245 0.628012 5.47947 0.0814936C8.10959 -0.294238 10.2217 0.696328 11.7701 2.85963C11.8441 2.9621 11.9067 3.06457 11.9978 3.2069C12.0605 3.11581 12.1117 3.0418 12.1572 2.97349C13.6032 0.724792 16.1707 -0.322702 18.5617 0.0871868C21.2886 0.559698 23.2869 2.47251 23.8561 5.08555C24.2034 6.69664 23.896 8.22234 23.2128 9.69111C22.4443 11.3477 21.357 12.788 20.1501 14.143C17.7704 16.8015 15.0492 19.073 12.1345 21.1168C12.0889 21.1395 12.0491 21.1623 11.9808 21.2078ZM11.161 6.42338C11.1382 6.21844 11.1211 6.04765 11.0984 5.88256C10.7283 2.44974 6.80022 0.588162 3.88546 2.46682C1.95556 3.70787 1.23256 6.03627 2.06942 8.31343C2.60455 9.77081 3.48126 11.0289 4.46044 12.2131C6.19677 14.3194 8.21206 16.1412 10.3412 17.8376C10.8877 18.2703 11.4456 18.6916 11.9978 19.1185C14.7247 17.0805 17.2865 14.9115 19.4555 12.3098C20.3607 11.2225 21.1748 10.0725 21.7441 8.76886C22.1767 7.77829 22.3988 6.75927 22.228 5.67192C21.8807 3.45738 20.0077 1.82352 17.6907 1.71536C15.5787 1.61858 13.552 3.13289 13.0226 5.22218C12.9258 5.6093 12.8802 6.01349 12.8119 6.42338C12.2654 6.42338 11.7189 6.42338 11.161 6.42338Z" fill="#616161"/>
</svg>
