<svg width="29" height="28" viewBox="0 0 29 28" fill="none" xmlns="http://www.w3.org/2000/svg">
<path d="M26.5375 7.00008C25.6392 7.40841 24.6709 7.67675 23.6675 7.80508C24.6942 7.18675 25.4875 6.20675 25.8609 5.02841C24.8925 5.61175 23.8192 6.02008 22.6875 6.25341C21.7659 5.25008 20.4709 4.66675 19.0009 4.66675C16.2592 4.66675 14.0192 6.90675 14.0192 9.67175C14.0192 10.0684 14.0659 10.4534 14.1475 10.8151C9.99419 10.6051 6.29586 8.61008 3.83419 5.58841C3.40253 6.32341 3.15753 7.18675 3.15753 8.09675C3.15753 9.83508 4.03253 11.3751 5.38586 12.2501C4.55753 12.2501 3.78753 12.0167 3.11086 11.6667V11.7017C3.11086 14.1284 4.83753 16.1584 7.12419 16.6134C6.39004 16.8143 5.6193 16.8423 4.87253 16.6951C5.1894 17.6896 5.80999 18.5599 6.64704 19.1835C7.4841 19.8071 8.49555 20.1527 9.53919 20.1717C7.77009 21.5723 5.57719 22.3293 3.32086 22.3184C2.92419 22.3184 2.52753 22.2951 2.13086 22.2484C4.34753 23.6717 6.98419 24.5001 9.80752 24.5001C19.0009 24.5001 24.0525 16.8701 24.0525 10.2551C24.0525 10.0334 24.0525 9.82341 24.0409 9.60175C25.0209 8.90175 25.8609 8.01508 26.5375 7.00008Z" fill="#00ACED"/>
</svg>
